<?xml version="1.0" encoding="utf-8"?>
<!-- Generator: Adobe Illustrator 16.0.0, SVG Export Plug-In . SVG Version: 6.00 Build 0)  -->
<!DOCTYPE svg PUBLIC "-//W3C//DTD SVG 1.1//EN" "http://www.w3.org/Graphics/SVG/1.1/DTD/svg11.dtd">
<svg version="1.1" id="Layer_1" xmlns="http://www.w3.org/2000/svg" xmlns:xlink="http://www.w3.org/1999/xlink" x="0px" y="0px"
	 width="198.265px" height="198.263px" viewBox="0 0 198.265 198.263" enable-background="new 0 0 198.265 198.263"
	 xml:space="preserve">
<g>
	<path fill="#CE242B" d="M17.174,198.263c0,0-17.174,0-17.174-17.175V17.174C0,17.174,0,0,17.174,0h163.915
		c0,0,17.176,0,17.176,17.174v163.914c0,0,0,17.175-17.176,17.175H17.174z"/>
	<g>
		<path fill="#F5AF38" d="M127.935,40.743c-11.631,0-22.006,15.498-28.793,39.73c-6.783-24.232-17.161-39.73-28.792-39.73
			c-20.442,0-37.021,51.564-37.021,115.168h16.456c0-59.061,9.21-106.94,20.565-106.94c11.358,0,20.567,44.198,20.567,98.716h16.452
			c0-54.518,9.207-98.716,20.566-98.716c11.357,0,20.568,47.88,20.568,106.94h16.449C164.952,92.308,148.378,40.743,127.935,40.743z
			"/>
	</g>
</g>
</svg>
