<svg width="52" height="12" viewBox="0 0 52 12" fill="none" xmlns="http://www.w3.org/2000/svg">
<path d="M10.1935 3.68536C11.2112 3.68536 12.0362 2.86036 12.0362 1.84268C12.0362 0.824995 11.2112 0 10.1935 0C9.17584 0 8.35085 0.824995 8.35085 1.84268C8.35085 2.86036 9.17584 3.68536 10.1935 3.68536Z" fill="#8CD4E0"/>
<path d="M2.79358 3.68536C3.81126 3.68536 4.63625 2.86036 4.63625 1.84268C4.63625 0.824995 3.81126 0 2.79358 0C1.77589 0 0.950897 0.824995 0.950897 1.84268C0.950897 2.86036 1.77589 3.68536 2.79358 3.68536Z" fill="#8CD4E0"/>
<path d="M2.79358 11.1214C3.81126 11.1214 4.63625 10.2964 4.63625 9.27873C4.63625 8.26105 3.81126 7.43606 2.79358 7.43606C1.77589 7.43606 0.950897 8.26105 0.950897 9.27873C0.950897 10.2964 1.77589 11.1214 2.79358 11.1214Z" fill="#8CD4E0"/>
<path d="M10.2297 11.1214C11.2474 11.1214 12.0724 10.2964 12.0724 9.27873C12.0724 8.26105 11.2474 7.43606 10.2297 7.43606C9.21202 7.43606 8.38702 8.26105 8.38702 9.27873C8.38702 10.2964 9.21202 11.1214 10.2297 11.1214Z" fill="#8CD4E0"/>
<path d="M36.7191 3.31971C36.855 3.38783 36.9908 3.45037 37.1255 3.50706C37.5052 3.6939 38.0792 3.88664 38.8484 4.08371C38.9903 4.11739 39.0649 4.20478 39.0706 4.34802C39.0595 4.5564 38.9607 4.6659 38.7737 4.67728C38.7021 4.67728 38.5432 4.64503 38.2957 4.57875C37.747 4.41569 37.2213 4.2089 36.7191 3.96029V3.31971ZM36.7191 9.6564V9.07111H37.0584H37.5545V7.68584C37.5545 7.54932 37.4883 7.48032 37.3561 7.48032H37.0584H36.8023L36.7191 7.62425V6.9278H37.6205C37.9988 6.9278 38.1887 7.09227 38.1887 7.42302V9.07111H38.7079C38.9061 9.07111 39.0044 9.16682 39.0044 9.35954C39.0044 9.55772 38.9061 9.6564 38.7079 9.6564H36.7191ZM36.7191 6.45819V5.97104H37.1338C37.2606 5.97104 37.3236 5.87991 37.3236 5.69835V5.46796C37.3236 5.32002 37.2606 5.24545 37.1338 5.24545H36.7191V4.7432H37.4306C37.7556 4.7432 37.9174 4.88968 37.9174 5.18097V6.00514C37.9174 6.30758 37.7556 6.45819 37.4306 6.45819H36.7191ZM35.9981 2.90682C36.2399 3.06211 36.4806 3.1996 36.7191 3.31971V3.96029L36.7047 3.95312C36.695 4.08928 36.6178 4.1583 36.4741 4.1583H35.9981V3.68868H36.2028C36.1344 3.651 36.0659 3.61301 35.9981 3.57339V2.90682ZM36.7191 4.7432V5.24545H35.9981V4.7432H36.7191ZM36.7191 5.97102V6.45817H35.9981V5.97102H36.7191ZM36.7191 6.9278V7.62425L35.9981 8.87334V7.6783L36.1127 7.48032H35.9981V6.92782H36.7191V6.9278ZM36.7191 9.07111V9.6564H35.9981V9.07111H36.3433H36.7191ZM35.0762 2.24881C35.1093 2.26695 35.1443 2.29055 35.1803 2.31992C35.4548 2.53737 35.7276 2.73319 35.9981 2.90682V3.57339C35.729 3.41611 35.4653 3.24278 35.2055 3.05417C35.1569 3.01723 35.1133 2.98716 35.0762 2.9632L35.0762 2.24881ZM35.9981 4.1583H35.0762V3.68868H35.9981V4.1583ZM35.9981 4.7432V5.24545H35.0762V4.7432H35.9981ZM35.9981 5.97102V6.45817H35.0762V5.97102H35.9981ZM35.9981 6.9278V7.48031H35.7499H35.0762V6.9278H35.9981ZM35.9981 7.67828V8.87332L35.8839 9.07111H35.9981V9.6564H35.0762V9.07111H35.1944L35.9981 7.67828ZM34.9256 2.20445C34.9732 2.20445 35.0229 2.21976 35.0762 2.24881L35.0762 2.9632C35.007 2.91909 34.9573 2.89656 34.9256 2.89656C34.865 2.89656 34.7988 2.92774 34.7275 2.98811C34.5307 3.15254 34.3394 3.30137 34.1539 3.43359V2.73822C34.3268 2.60794 34.4991 2.46818 34.6694 2.31992C34.7527 2.24409 34.8374 2.20445 34.9256 2.20445ZM35.0762 4.1583H34.1539V3.68868H35.0762V4.1583ZM35.0762 4.7432V5.24545H34.1539V4.7432H35.0762ZM35.0762 5.97102V6.45817H34.1539V5.97102H35.0762ZM35.0762 6.9278V7.48031H34.958L34.1539 8.87316V7.67826L34.2681 7.48029H34.1539V6.92778H35.0762V6.9278ZM35.0762 9.07111V9.6564H34.1539V9.07111H34.4562H35.0762ZM34.1539 4.1583H33.6062C33.5526 4.1583 33.5075 4.14963 33.4714 4.13196V3.20374C33.7007 3.06394 33.9283 2.90859 34.1539 2.73822V3.43359C34.0238 3.52668 33.8966 3.61138 33.7722 3.68868H34.1539V4.1583ZM34.1539 4.7432V5.24545H33.4714V4.7432H34.1539ZM34.1539 5.97102V6.45817H33.4714V5.97102H34.1539ZM34.1539 6.9278V7.48031H33.8707H33.4714V6.9278H34.1539ZM34.1539 7.67826V8.87316L34.0396 9.07113H34.1539V9.6564L33.4714 9.65641V8.86L34.1539 7.67826ZM33.4714 4.13196C33.402 4.09739 33.3674 4.02896 33.3674 3.92753C33.3025 3.96534 33.2365 4.00226 33.1703 4.03451C32.6486 4.29341 32.1589 4.49582 31.7032 4.64501C31.5486 4.71075 31.4334 4.74318 31.3573 4.74318C31.1703 4.73203 31.0745 4.62231 31.0691 4.41426C31.0691 4.27647 31.1419 4.19068 31.291 4.15828C32.1265 3.86716 32.7498 3.60827 33.1616 3.38329C33.2653 3.32637 33.3684 3.26659 33.4714 3.20374V4.13196ZM33.4714 4.7432H32.6428C32.3182 4.7432 32.1561 4.88968 32.1561 5.18097V6.00514C32.1561 6.30758 32.3182 6.45819 32.6428 6.45819H33.4714V5.97104H32.948C32.81 5.97104 32.7412 5.87991 32.7412 5.69835V5.46796C32.7412 5.32002 32.81 5.24545 32.948 5.24545H33.4714V4.7432ZM33.4714 6.9278V7.48031H33.4404H32.8482C32.7329 7.48031 32.6753 7.5493 32.6753 7.68583V9.07109H33.3497L33.4714 8.85996V9.65638H31.5303C31.3263 9.65638 31.2252 9.5577 31.2252 9.35953C31.2252 9.16682 31.3264 9.07109 31.5303 9.07109H32.0494V7.423C32.0494 7.09225 32.2281 6.92778 32.5852 6.92778H33.4714V6.9278Z" fill="#231F20"/>
<path d="M20.1914 3.53227H21.1718C21.4798 3.53227 21.6329 3.71674 21.6329 4.08492C21.6329 4.73346 21.568 5.33692 21.4359 5.89828C21.2982 6.60121 21.0759 7.24392 20.7678 7.82651C20.7571 7.84742 20.747 7.86704 20.7354 7.88412C20.8666 7.99942 20.9804 8.10068 21.073 8.18914C21.4246 8.47486 21.6004 8.69983 21.6004 8.86432C21.5947 8.95851 21.5698 9.02897 21.5258 9.07811C21.4769 9.12876 21.4109 9.1585 21.3292 9.16966C21.1916 9.16966 21.0647 9.11473 20.9494 9.00501C20.7411 8.80668 20.5455 8.61969 20.3643 8.44383C20.3085 8.52101 20.2505 8.59699 20.1914 8.67156V7.40101L20.2659 7.46371C20.5401 6.9685 20.7441 6.39455 20.8748 5.74049C20.9804 5.20903 21.0323 4.73346 21.0323 4.31594C21.0323 4.18925 20.9901 4.12586 20.9088 4.12586H20.1914L20.1914 3.53227ZM25.8525 5.83218C26.0507 5.83218 26.1495 5.93053 26.1495 6.12868C26.1495 6.32718 26.0507 6.42572 25.8525 6.42572H24.9788C25.1395 6.94166 25.2181 7.46067 25.2181 7.98271C25.2181 8.30747 25.1338 8.631 24.9637 8.95583C24.8258 9.24134 24.6329 9.44387 24.3854 9.5649C24.1718 9.69712 23.9128 9.76324 23.6119 9.76324C23.2055 9.76324 22.7426 9.62812 22.2267 9.35953C22.0354 9.29355 21.9355 9.18642 21.9298 9.03726C21.9355 8.80668 22.0354 8.68291 22.2267 8.6676C22.9465 8.95849 23.394 9.10353 23.5698 9.10353C23.7244 9.10353 23.8692 9.06264 24.0072 8.97998C24.1718 8.89821 24.3066 8.76054 24.4106 8.56762C24.5094 8.39176 24.5584 8.19779 24.5584 7.98271C24.5584 7.43401 24.4982 6.96706 24.3786 6.58154C24.3613 6.52125 24.3419 6.46899 24.3207 6.42572H22.0537C21.8563 6.42572 21.7565 6.32718 21.7565 6.12868C21.7565 5.93053 21.8563 5.83218 22.0537 5.83218H24.0155C23.9491 5.74354 23.8862 5.66175 23.8256 5.58445C23.612 5.32706 23.3731 5.11755 23.1083 4.95866C23.0269 4.89812 22.9847 4.83759 22.9847 4.77726C22.9959 4.57316 23.1169 4.46345 23.3475 4.44669C23.3965 4.44669 23.4545 4.46903 23.5205 4.51261C23.5486 4.49153 23.5782 4.46905 23.612 4.44669C23.8919 4.29877 24.1027 4.16653 24.2465 4.05124C24.4489 3.89795 24.6276 3.73203 24.7822 3.55625C24.8975 3.42543 24.9551 3.33667 24.9551 3.29323C24.9551 3.24982 24.9216 3.22713 24.8553 3.22713H22.1942C22.0185 3.22713 21.9298 3.13978 21.9298 2.96411C21.9298 2.7939 22.0185 2.70812 22.1942 2.70812H25.3586C25.6444 2.70812 25.7877 2.81511 25.7877 3.03026C25.7877 3.14968 25.7344 3.28765 25.6303 3.44222C25.4714 3.68275 25.2351 3.94716 24.9216 4.23288C24.6359 4.49153 24.3361 4.71077 24.0242 4.89238C24.1337 5.0021 24.2378 5.11757 24.3361 5.23842C24.4964 5.42539 24.6305 5.62394 24.7401 5.8322H25.8525V5.83218ZM18.8565 3.53227H19.433C19.4499 3.23001 19.4586 2.89821 19.4586 2.5352C19.4586 2.33667 19.5569 2.2383 19.7537 2.2383C19.9464 2.2383 20.0437 2.33668 20.0437 2.5352C20.0437 2.89821 20.0354 3.23001 20.0181 3.53227H20.1914L20.1914 4.12586H19.9691C19.941 4.39462 19.9057 4.63656 19.862 4.85149C19.7734 5.26794 19.6228 5.77705 19.4078 6.3764C19.3699 6.46354 19.3501 6.53817 19.3501 6.59849C19.3501 6.64206 19.4135 6.72514 19.5403 6.84602C19.7795 7.05046 19.9954 7.23535 20.1914 7.40103V8.67158C19.883 9.05851 19.5289 9.40856 19.1282 9.72237C19.0349 9.77156 18.9549 9.79567 18.8886 9.79567C18.6692 9.79567 18.5597 9.68595 18.5597 9.46639C18.5597 9.40027 18.5921 9.33127 18.658 9.25974C19.1801 8.85316 19.5976 8.43831 19.9114 8.01643C19.571 7.69145 19.263 7.41149 18.9888 7.17515C18.8396 7.02599 18.765 6.83486 18.765 6.59853C18.765 6.55944 18.7848 6.48613 18.8227 6.37643C19.0533 5.84879 19.2082 5.35663 19.2842 4.90085C19.3293 4.67587 19.3671 4.41705 19.3995 4.12592H18.8565C18.658 4.12592 18.5597 4.02753 18.5597 3.82921C18.5597 3.63098 18.658 3.53227 18.8565 3.53227Z" fill="#231F20"/>
<path d="M49.9318 7.63413H50.9284C51.2043 7.63413 51.343 7.76525 51.343 8.02434V9.19992C51.343 9.48649 51.2036 9.63028 50.9284 9.63028H49.9318V9.07763H50.603C50.7057 9.07763 50.7572 9.0097 50.7572 8.87495V8.35039C50.7572 8.23672 50.705 8.17978 50.603 8.17978H49.9318V7.63413ZM49.9318 4.73075V4.17828H50.603C50.7057 4.17828 50.7572 4.11015 50.7572 3.97542V3.4179C50.7572 3.30405 50.705 3.24709 50.603 3.24709H49.9318V2.70164H50.9284C51.2043 2.70164 51.343 2.83259 51.343 3.09169V4.30038C51.343 4.587 51.2036 4.73073 50.9284 4.73073H49.9318V4.73075ZM48.9356 7.63413H49.9318V8.17976H49.2606C49.1583 8.17976 49.1064 8.23743 49.1064 8.35037V8.87493C49.1064 9.00894 49.1575 9.07761 49.2606 9.07761H49.9318V9.63026H48.9356C48.66 9.63026 48.5206 9.48722 48.5206 9.19991V8.02432C48.5206 7.76452 48.6593 7.63413 48.9356 7.63413ZM49.9318 2.70166V3.24709L49.2606 3.24711C49.1583 3.24711 49.1064 3.30496 49.1064 3.41792V3.97544C49.1064 4.10948 49.1575 4.1783 49.2606 4.1783H49.9318V4.73077H48.9356C48.66 4.73077 48.5206 4.58776 48.5206 4.30041V3.09173C48.5206 2.83191 48.6593 2.70168 48.9356 2.70168L49.9318 2.70166ZM45.946 9.63028V9.07763H46.6172C46.7202 9.07763 46.7713 9.0097 46.7713 8.87495V8.35039C46.7713 8.23672 46.7195 8.17978 46.6172 8.17978H45.946V7.63415H46.9425C47.2186 7.63415 47.3576 7.76526 47.3576 8.02436V9.19994C47.3576 9.48651 47.2178 9.6303 46.9425 9.6303L45.946 9.63028ZM45.946 4.73075V4.17828H46.6172C46.7202 4.17828 46.7713 4.11015 46.7713 3.97542V3.4179C46.7713 3.30405 46.7195 3.24709 46.6172 3.24709H45.946V2.70164H46.9425C47.2186 2.70164 47.3576 2.83259 47.3576 3.09169V4.30038C47.3576 4.587 47.2178 4.73073 46.9425 4.73073H45.946V4.73075ZM46.6532 5.50809C46.5289 5.40161 46.5152 5.21446 46.6218 5.09051C46.7286 4.96675 46.9151 4.9527 47.039 5.05935L47.903 5.803L48.7659 5.05985C48.8888 4.95343 49.0754 4.96695 49.1821 5.09013C49.2887 5.21317 49.2753 5.39998 49.1521 5.50624L48.3556 6.19225L49.1521 6.87786C49.2761 6.98452 49.2901 7.17135 49.1835 7.29527C49.0768 7.4192 48.8898 7.4331 48.7659 7.32644L47.9019 6.58284L47.039 7.3257C46.9159 7.43252 46.7292 7.41904 46.6226 7.29585C46.5163 7.17258 46.5297 6.98601 46.6529 6.87951L47.4494 6.19354L46.6532 5.50809ZM45.946 2.70166V3.24709L45.2747 3.24711C45.1728 3.24711 45.1206 3.30496 45.1206 3.41792V3.97544C45.1206 4.10948 45.1721 4.1783 45.2747 4.1783H45.946V4.73077H44.9498C44.6742 4.73077 44.5347 4.58776 44.5347 4.30041V3.09173C44.5347 2.83191 44.6734 2.70168 44.9498 2.70168L45.946 2.70166ZM45.946 7.63413V8.17976H45.2747C45.1728 8.17976 45.1206 8.23743 45.1206 8.35037V8.87493C45.1206 9.00894 45.1721 9.07761 45.2747 9.07761H45.946V9.63026H44.9498C44.6742 9.63026 44.5347 9.48722 44.5347 9.19991V8.02432C44.5347 7.76452 44.6734 7.63411 44.9498 7.63411L45.946 7.63413Z" fill="#231F20"/>
<path d="M2.10109 0.87687C2.97558 0.87687 3.68704 1.58833 3.68704 2.46282C3.68704 3.33734 2.97558 4.04883 2.10109 4.04883C1.22657 4.04883 0.515113 3.33734 0.515113 2.46282C0.515095 1.58833 1.22657 0.87687 2.10109 0.87687ZM2.10109 0.361757C0.940688 0.361757 0 1.30243 0 2.46282C0 3.6232 0.940688 4.56395 2.10109 4.56395C3.26148 4.56395 4.20215 3.6232 4.20215 2.46282C4.20215 1.30243 3.26148 0.361757 2.10109 0.361757Z" fill="#231F20"/>
<path d="M9.53721 0.515113C10.4117 0.515113 11.1232 1.22659 11.1232 2.10107C11.1232 2.97558 10.4117 3.68708 9.53721 3.68708C8.6627 3.68708 7.95124 2.97558 7.95124 2.10107C7.95122 1.22659 8.6627 0.515113 9.53721 0.515113ZM9.53721 0C8.37681 0 7.43613 0.940688 7.43613 2.10107C7.43613 3.26145 8.37681 4.20219 9.53721 4.20219C10.6976 4.20219 11.6383 3.26145 11.6383 2.10107C11.6383 0.940688 10.6976 0 9.53721 0Z" fill="#231F20"/>
<path d="M2.10109 8.31292C2.97558 8.31292 3.68704 9.02438 3.68704 9.89888C3.68704 10.7734 2.97558 11.4849 2.10109 11.4849C1.22657 11.4849 0.515113 10.7734 0.515113 9.89888C0.515095 9.02438 1.22657 8.31292 2.10109 8.31292ZM2.10109 7.79781C0.940688 7.79781 0 8.7385 0 9.89888C0 11.0593 0.940688 12 2.10109 12C3.26148 12 4.20215 11.0593 4.20215 9.89888C4.20215 8.7385 3.26148 7.79781 2.10109 7.79781Z" fill="#231F20"/>
<path d="M9.53721 8.31292C10.4117 8.31292 11.1232 9.02438 11.1232 9.89888C11.1232 10.7734 10.4117 11.4849 9.53721 11.4849C8.6627 11.4849 7.95124 10.7734 7.95124 9.89888C7.95122 9.02438 8.6627 8.31292 9.53721 8.31292ZM9.53721 7.79781C8.37681 7.79781 7.43613 8.7385 7.43613 9.89888C7.43613 11.0593 8.3768 12 9.53721 12C10.6976 12 11.6383 11.0593 11.6383 9.89888C11.6383 8.7385 10.6976 7.79781 9.53721 7.79781Z" fill="#231F20"/>
<path d="M7.37557 4.62614V4.76843C7.36402 4.80918 7.34243 4.84769 7.31039 4.87975L6.18987 5.99989L7.31039 7.1202C7.34245 7.15242 7.36402 7.19153 7.37557 7.2326V7.37401C7.36402 7.41473 7.34243 7.45347 7.31039 7.4857C7.20949 7.58641 7.04554 7.58641 6.94464 7.4857L5.82415 6.36543L4.7037 7.4857C4.60279 7.58659 4.43926 7.58659 4.33837 7.4857C4.23747 7.3848 4.23747 7.22109 4.33837 7.1202L5.45879 5.99989L4.33837 4.87975C4.23747 4.7789 4.23747 4.61515 4.33837 4.51424C4.43926 4.41339 4.60315 4.41339 4.70406 4.51424L5.82417 5.63459L6.94465 4.51424C7.04554 4.41339 7.20951 4.41339 7.31041 4.51424C7.34243 4.5465 7.36402 4.58545 7.37557 4.62614Z" fill="#231F20"/>
</svg>
