<?xml version="1.0" encoding="utf-8"?>
<!-- Generator: Adobe Illustrator 16.0.0, SVG Export Plug-In . SVG Version: 6.00 Build 0)  -->
<!DOCTYPE svg PUBLIC "-//W3C//DTD SVG 1.1//EN" "http://www.w3.org/Graphics/SVG/1.1/DTD/svg11.dtd">
<svg version="1.1" id="Layer_1" xmlns="http://www.w3.org/2000/svg" xmlns:xlink="http://www.w3.org/1999/xlink" x="0px" y="0px"
	 width="48px" height="48px" viewBox="0 0 48 48" enable-background="new 0 0 48 48" xml:space="preserve">
<g>
	<path fill="#FFFFFF" d="M36.32,17.702c-0.007-0.073-0.026-0.135-0.039-0.205c-0.005-0.089-0.02-0.181-0.053-0.278
		c-0.168-0.495-0.443-1.184-0.748-2.086c-0.311-0.901-0.675-1.997-1.091-3.264c-0.409-1.266-0.873-2.7-1.381-4.271L32.954,7.43
		c-0.033-0.096-0.073-0.189-0.123-0.278c-0.098-0.179-0.228-0.34-0.382-0.475c-0.308-0.269-0.719-0.425-1.135-0.425
		c-0.433,0.006-0.875,0.012-1.325,0.019c-0.895,0.011-1.824,0.021-2.782,0.033c-1.916,0.015-3.949,0.031-6.069,0.048
		c-2.12,0.014-4.33,0.028-6.598,0.043c-1.133,0.004-2.282,0.007-3.441,0.011c-0.58,0.001-1.163,0.003-1.748,0.005L8.911,6.412
		l-0.221,0c-0.023,0-0.109,0.002-0.167,0.006C8.459,6.426,8.396,6.434,8.333,6.448c-0.505,0.105-0.944,0.475-1.129,0.96
		c-0.686,2.272-1.38,4.576-2.074,6.877l-0.52,1.714l-0.261,0.856l-0.129,0.428c-0.04,0.105-0.113,0.537-0.085,0.646
		c0.021,1.368,0.629,2.708,1.621,3.633c0.083,0.079,0.184,0.136,0.272,0.209c0.018,0.353,0.08,0.848,0.109,1.487
		c0.036,0.645,0.067,1.426,0.099,2.328c0.024,0.9,0.052,1.92,0.082,3.038c0.022,1.118,0.047,2.336,0.072,3.633
		c0.015,1.297,0.031,2.674,0.048,4.108c0.002,0.18,0.005,0.36,0.007,0.541l0.003,0.276c0.003,0.163,0.029,0.328,0.081,0.486
		c0.2,0.636,0.83,1.106,1.505,1.107c0.75-0.007,1.512-0.014,2.284-0.021c1.534-0.006,3.11-0.012,4.706-0.019
		c0.355-0.001,0.717-0.002,1.074-0.003c0.356,0.001,0.717,0.002,1.072,0.003c1.591,0.006,3.169,0.013,4.705,0.019
		c1.535,0.015,3.033,0.029,4.474,0.043l3.01,0.035c0.117,0.001,0.226-0.029,0.325-0.076c0.673,0.007,1.341,0.013,1.998,0.019
		l0.14,0.001l0.07,0l0.119-0.004c0.166-0.012,0.333-0.046,0.488-0.109c0.312-0.124,0.58-0.344,0.759-0.624
		c0.091-0.139,0.158-0.293,0.201-0.454c0.023-0.08,0.036-0.162,0.047-0.244c0.007-0.076,0.011-0.183,0.01-0.212
		c0.002-0.182,0.004-0.363,0.006-0.544c0.017-1.443,0.033-2.829,0.048-4.135c0.025-1.308,0.049-2.539,0.072-3.67
		c0.031-1.131,0.058-2.166,0.083-3.084c0.031-0.916,0.062-1.716,0.098-2.379c0.02-0.45,0.088-0.833,0.113-1.15
		c0.776-0.552,1.346-1.254,1.701-1.934c0.285-0.531,0.475-1.05,0.58-1.522c0.025-0.119,0.048-0.233,0.071-0.343
		c0.011-0.112,0.021-0.22,0.03-0.323c0.003-0.051,0.007-0.103,0.01-0.152l0.003-0.074C36.33,17.799,36.324,17.74,36.32,17.702z"/>
	<path fill="#FCB91F" d="M25.312,27.064H14.647c-0.972,0-1.761-0.789-1.761-1.76c0-0.973,0.789-1.761,1.761-1.761h10.665
		c0.972,0,1.76,0.788,1.76,1.761C27.072,26.276,26.284,27.064,25.312,27.064"/>
	<path fill="#231F20" d="M36.32,17.703c-0.008-0.073-0.026-0.135-0.039-0.205c-0.006-0.089-0.021-0.181-0.053-0.278
		c-0.168-0.495-0.443-1.185-0.747-2.086c-0.311-0.901-0.676-1.997-1.092-3.263c-0.409-1.266-0.873-2.7-1.381-4.272L32.954,7.43
		c-0.032-0.096-0.072-0.189-0.122-0.278c-0.099-0.178-0.229-0.34-0.383-0.474c-0.308-0.27-0.719-0.426-1.135-0.425
		c-0.433,0.006-0.874,0.013-1.324,0.019c-0.896,0.011-1.824,0.021-2.782,0.033c-1.916,0.015-3.95,0.031-6.07,0.048
		c-2.12,0.014-4.33,0.028-6.598,0.043c-1.133,0.003-2.281,0.007-3.441,0.01c-0.58,0.001-1.163,0.003-1.748,0.005L8.911,6.412
		l-0.22,0c-0.024,0-0.11,0.002-0.168,0.007c-0.064,0.007-0.128,0.015-0.19,0.029C7.827,6.553,7.389,6.923,7.204,7.408
		c-0.686,2.273-1.38,4.576-2.075,6.877L4.609,16l-0.26,0.855l-0.13,0.428c-0.04,0.105-0.113,0.537-0.086,0.646
		c0.021,1.369,0.63,2.709,1.622,3.633c0.083,0.079,0.184,0.137,0.273,0.209c0.017,0.353,0.08,0.849,0.109,1.487
		c0.036,0.645,0.067,1.426,0.098,2.328c0.024,0.901,0.052,1.92,0.083,3.039c0.022,1.118,0.046,2.335,0.072,3.632
		c0.015,1.297,0.031,2.674,0.048,4.109c0.002,0.179,0.004,0.359,0.006,0.541l0.003,0.276c0.003,0.163,0.03,0.328,0.081,0.485
		c0.199,0.636,0.83,1.106,1.505,1.107c0.75-0.006,1.512-0.013,2.284-0.02c1.533-0.006,3.11-0.013,4.706-0.019
		c0.328-0.001,0.662-0.002,0.991-0.003c0.384,0.001,0.773,0.002,1.155,0.003c1.592,0.006,3.169,0.013,4.704,0.019
		c1.535,0.015,3.034,0.029,4.474,0.043l3.01,0.035c0.117,0.001,0.226-0.029,0.325-0.076c0.673,0.006,1.342,0.013,1.998,0.018
		l0.14,0.002h0.07l0.119-0.004c0.166-0.012,0.333-0.046,0.488-0.109c0.312-0.124,0.579-0.345,0.759-0.624
		c0.091-0.139,0.157-0.293,0.201-0.454c0.023-0.08,0.036-0.162,0.048-0.244c0.007-0.076,0.01-0.183,0.01-0.212
		c0.002-0.182,0.004-0.364,0.006-0.544c0.018-1.443,0.033-2.829,0.049-4.135c0.025-1.308,0.05-2.539,0.072-3.67
		c0.03-1.131,0.058-2.166,0.082-3.083c0.031-0.916,0.062-1.716,0.098-2.379c0.02-0.45,0.088-0.833,0.113-1.151
		c0.776-0.551,1.346-1.254,1.701-1.933c0.284-0.531,0.475-1.051,0.58-1.523c0.024-0.119,0.048-0.233,0.07-0.343
		c0.011-0.112,0.021-0.219,0.031-0.322c0.003-0.052,0.006-0.103,0.01-0.152l0.002-0.073C36.331,17.798,36.324,17.741,36.32,17.703z
		 M24.356,7.875c0.044,0.137,0.09,0.283,0.139,0.461c0.056,0.214,0.111,0.457,0.172,0.721s0.119,0.554,0.177,0.862
		c0.059,0.307,0.12,0.633,0.179,0.974c0.059,0.34,0.115,0.695,0.176,1.059c0.059,0.363,0.114,0.737,0.171,1.115
		c0.054,0.379,0.109,0.762,0.16,1.145c0.051,0.383,0.099,0.768,0.146,1.146c0.044,0.379,0.088,0.754,0.127,1.118
		c0.037,0.366,0.075,0.722,0.107,1.064c0.032,0.342,0.058,0.671,0.083,0.981c0.024,0.31,0.043,0.601,0.054,0.87
		c0.01,0.269,0.02,0.514,0.021,0.731c0,0.109-0.005,0.189-0.009,0.284c-0.702,0.694-1.687,1.1-2.689,1.054
		c-0.885-0.031-1.735-0.421-2.378-1.038c-0.027-0.133-0.054-0.272-0.078-0.444c-0.029-0.216-0.059-0.462-0.082-0.73
		c-0.028-0.269-0.054-0.561-0.073-0.872c-0.015-0.312-0.035-0.643-0.048-0.987c-0.018-0.344-0.027-0.704-0.043-1.073
		c-0.005-0.369-0.016-0.747-0.019-1.131c-0.014-0.383-0.014-0.772-0.014-1.159c0-0.389,0-0.777,0.014-1.161
		c0.003-0.384,0.014-0.763,0.019-1.133c0.016-0.37,0.025-0.731,0.043-1.079c0.014-0.346,0.033-0.679,0.048-0.993
		c0.019-0.314,0.045-0.609,0.073-0.882c0.023-0.271,0.053-0.52,0.082-0.74c0.01-0.073,0.022-0.122,0.032-0.188
		c0.063,0,0.13,0,0.193,0.001C22.236,7.857,23.309,7.866,24.356,7.875z M13.897,20.562c-0.008-0.136-0.014-0.275-0.014-0.448
		c0.001-0.221,0.007-0.47,0.022-0.742c0.011-0.272,0.026-0.569,0.052-0.884c0.029-0.313,0.057-0.647,0.092-0.994
		c0.031-0.347,0.072-0.708,0.109-1.079c0.047-0.369,0.09-0.75,0.141-1.133c0.041-0.385,0.096-0.774,0.151-1.162
		c0.055-0.389,0.11-0.777,0.179-1.159c0.058-0.382,0.122-0.761,0.179-1.129c0.068-0.368,0.129-0.728,0.195-1.072
		c0.063-0.345,0.129-0.675,0.188-0.986c0.063-0.311,0.131-0.604,0.196-0.871c0.062-0.269,0.126-0.512,0.187-0.728
		c0.04-0.137,0.076-0.241,0.114-0.354c1.121,0.006,2.223,0.011,3.308,0.017c0.011,0.069,0.021,0.122,0.032,0.199
		c0.027,0.22,0.049,0.469,0.076,0.74c0.025,0.272,0.045,0.568,0.062,0.882c0.017,0.314,0.034,0.647,0.048,0.993
		c0.014,0.347,0.022,0.709,0.034,1.079c0.01,0.37,0.016,0.749,0.022,1.133c0.003,0.384,0.007,0.772,0.007,1.161
		c0,0.387-0.003,0.776-0.007,1.159c-0.006,0.384-0.012,0.762-0.022,1.131c-0.012,0.369-0.021,0.729-0.034,1.073
		c-0.014,0.345-0.031,0.676-0.048,0.987c-0.017,0.312-0.036,0.604-0.062,0.872c-0.026,0.269-0.048,0.514-0.076,0.73
		c-0.024,0.18-0.051,0.327-0.076,0.465c-0.292,0.287-0.612,0.544-0.981,0.721c-0.757,0.364-1.648,0.455-2.469,0.255
		C14.908,21.275,14.354,20.973,13.897,20.562z M5.494,17.897c-0.001-0.029-0.005-0.067-0.004-0.089
		c0.005-0.008,0.009-0.016,0.01-0.023c0.005-0.017-0.013-0.013,0.02-0.108l0.129-0.428l0.259-0.856l0.519-1.714
		c0.688-2.266,1.378-4.532,2.059-6.77c0.021-0.056,0.076-0.1,0.134-0.11l0.022-0.004h0.049l0.22,0l0.439,0.001
		c0.585,0.001,1.168,0.003,1.748,0.004c0.88,0.003,1.746,0.006,2.611,0.01c0,0.031,0.001,0.051,0.001,0.083
		c-0.004,0.225-0.017,0.477-0.03,0.752c-0.013,0.275-0.036,0.574-0.063,0.89c-0.027,0.317-0.058,0.652-0.094,1.001
		c-0.035,0.348-0.078,0.71-0.118,1.083c-0.042,0.371-0.091,0.752-0.139,1.137c-0.051,0.384-0.103,0.773-0.157,1.162
		c-0.055,0.388-0.114,0.776-0.172,1.159c-0.061,0.382-0.119,0.76-0.182,1.127c-0.064,0.367-0.124,0.725-0.187,1.068
		s-0.126,0.671-0.188,0.979c-0.061,0.31-0.121,0.599-0.185,0.864c-0.064,0.265-0.121,0.506-0.178,0.718
		c-0.06,0.212-0.119,0.396-0.169,0.546c-0.022,0.062-0.049,0.115-0.074,0.166c-0.64,0.595-1.487,0.981-2.383,1.009
		c-0.441,0.017-0.883-0.058-1.304-0.195c-0.151-0.127-0.356-0.215-0.597-0.258c-0.285-0.151-0.558-0.325-0.796-0.548
		C5.961,19.879,5.512,18.903,5.494,17.897z M11.311,35c0.007-1.591,0.015-3.163,0.022-4.692c0.003-0.383,0.006-0.764,0.009-1.141
		c0.001-0.171,0.002-0.342,0.003-0.511c0.102-0.077,0.363-0.181,0.619-0.215c0.139-0.024,0.285-0.036,0.431-0.038
		c0.174,0.001,0.348,0.002,0.52,0.003c1.431,0.017,2.804,0.033,4.097,0.049c1.294,0.021,2.508,0.042,3.623,0.062
		c1.114,0.027,2.132,0.053,3.029,0.075c0.899,0.035,1.68,0.066,2.322,0.091c0.642,0.031,1.146,0.095,1.494,0.1
		c0.139-0.002,0.3-0.009,0.474,0.001c0.143,0.005,0.298,0.039,0.402,0.075c0.001,0.026,0.002,0.052,0.003,0.079
		c0.014,0.396,0.029,0.824,0.045,1.281c0.023,0.916,0.049,1.947,0.076,3.075c0.02,1.129,0.039,2.355,0.062,3.66l0.004,0.323
		l-2.2,0.026c-1.44,0.011-2.938,0.023-4.474,0.035c-1.535,0.007-3.112,0.015-4.704,0.022c-0.312,0-0.63,0.001-0.943,0.001
		c-0.4-0.001-0.806-0.001-1.203-0.002c-1.256-0.006-2.494-0.012-3.715-0.017L11.311,35z M32.03,37.189
		c-0.003,0.006,0,0.014-0.004,0.02c-0.003,0.013-0.006,0.026-0.014,0.038c-0.014,0.025-0.037,0.046-0.062,0.059
		c-0.013,0.007-0.027,0.008-0.043,0.011l-0.018,0.002h-0.07l-0.14,0.001c-0.509,0.003-1.03,0.007-1.549,0.011l0.005-0.378
		c0.025-1.305,0.05-2.531,0.072-3.66c0.029-1.128,0.058-2.159,0.082-3.075c0.017-0.457,0.033-0.884,0.047-1.281
		c0.005-0.099,0.009-0.196,0.013-0.291l0.003-0.071l0.002-0.035l-0.004-0.1c-0.007-0.157-0.04-0.297-0.088-0.43
		c-0.209-0.516-0.51-0.72-0.735-0.887c-0.472-0.302-0.845-0.428-1.183-0.526c-0.336-0.092-0.627-0.126-0.863-0.098
		c-0.353,0.017-0.853,0.081-1.494,0.11c-0.643,0.036-1.423,0.067-2.322,0.099c-0.897,0.024-1.915,0.052-3.029,0.082
		c-1.115,0.022-2.329,0.047-3.623,0.072c-1.293,0.015-2.666,0.031-4.097,0.048c-0.185,0.003-0.371,0.005-0.558,0.009
		c-0.213,0.006-0.429,0.028-0.646,0.069c-0.436,0.09-0.879,0.197-1.356,0.595c-0.119,0.115-0.24,0.237-0.336,0.438
		c-0.047,0.093-0.085,0.211-0.104,0.326c-0.009,0.061-0.014,0.122-0.017,0.183l0,0.073c0.001,0.187,0.003,0.375,0.005,0.564
		c0.004,0.377,0.007,0.758,0.011,1.141C9.921,31.837,9.927,33.41,9.934,35l0.007,2.333c-0.633-0.005-1.264-0.009-1.881-0.014
		c-0.061-0.002-0.114-0.05-0.128-0.104c-0.003-0.013-0.005-0.026-0.005-0.041l0.002-0.269c0.002-0.182,0.004-0.362,0.005-0.541
		c0.018-1.435,0.033-2.812,0.049-4.109c0.022-1.297,0.042-2.514,0.062-3.632c0.028-1.118,0.053-2.138,0.075-3.039
		c0.036-0.902,0.066-1.684,0.092-2.328c0.007-0.151,0.017-0.293,0.026-0.429c0.398,0.083,0.801,0.135,1.206,0.121
		c1.265-0.032,2.479-0.582,3.372-1.438c0.645,0.631,1.452,1.099,2.333,1.322c1.144,0.293,2.384,0.184,3.46-0.317
		c0.5-0.23,0.957-0.548,1.361-0.923c0.889,0.851,2.08,1.392,3.321,1.456c1.382,0.099,2.783-0.412,3.824-1.335
		c0.065,0.061,0.126,0.127,0.194,0.186c0.758,0.645,1.662,1.05,2.562,1.201c0.639,0.11,1.271,0.097,1.864-0.008
		c0.005,0.076,0.01,0.146,0.014,0.227c0.025,0.663,0.057,1.463,0.092,2.379c0.021,0.918,0.048,1.952,0.075,3.083
		c0.02,1.131,0.04,2.362,0.062,3.67c0.015,1.306,0.031,2.692,0.048,4.135c0.002,0.181,0.004,0.362,0.006,0.544
		C32.031,37.195,32.028,37.175,32.03,37.189z M34.021,18.364c-0.024,0.286-0.089,0.612-0.245,0.953
		c-0.297,0.68-0.939,1.445-1.945,1.82c-0.984,0.381-2.36,0.292-3.42-0.565c-0.137-0.111-0.25-0.248-0.37-0.377
		c-0.035-0.108-0.07-0.207-0.107-0.339c-0.058-0.209-0.119-0.447-0.178-0.708c-0.062-0.261-0.126-0.546-0.187-0.852
		c-0.057-0.305-0.119-0.629-0.178-0.968c-0.062-0.337-0.12-0.69-0.184-1.052c-0.054-0.363-0.114-0.735-0.168-1.113
		c-0.064-0.376-0.115-0.759-0.166-1.143c-0.051-0.384-0.103-0.767-0.14-1.147c-0.047-0.379-0.087-0.755-0.13-1.122
		c-0.033-0.367-0.07-0.725-0.1-1.07c-0.032-0.344-0.058-0.675-0.083-0.987c-0.022-0.312-0.036-0.608-0.045-0.88
		c-0.012-0.271-0.016-0.521-0.016-0.743c0.001-0.069,0.006-0.117,0.007-0.182c0.276,0.002,0.568,0.005,0.84,0.007
		c0.958,0.01,1.887,0.019,2.782,0.027c0.445,0.006,0.882,0.011,1.311,0.017c0.009,0.004,0.014,0.009,0.019,0.016
		c0.001,0.004,0.002,0.007,0.001,0.01v0.004l0.036,0.128c0.453,1.588,0.865,3.038,1.229,4.317c0.353,1.285,0.658,2.399,0.91,3.317
		c0.243,0.907,0.397,1.632,0.54,2.125v0.001v0.012v0.01c-0.013,0.004-0.018,0.005,0,0v0.081c0.001,0.062,0.002,0.128,0.003,0.195
		C34.034,18.224,34.027,18.293,34.021,18.364z"/>
	<path opacity="0.6" fill="#FCB91F" d="M8.904,21.129c-0.105,0-0.213-0.01-0.321-0.03c-0.956-0.176-1.588-1.094-1.412-2.05
		l1.7-9.229c0.176-0.956,1.094-1.589,2.051-1.412c0.956,0.176,1.588,1.094,1.413,2.051l-1.701,9.229
		C10.478,20.536,9.737,21.129,8.904,21.129"/>
	<path opacity="0.6" fill="#FCB91F" d="M16.518,21.129c-0.063,0-0.128-0.004-0.193-0.011c-0.967-0.105-1.665-0.975-1.559-1.941
		l1.004-9.229c0.105-0.967,0.975-1.664,1.941-1.56c0.967,0.105,1.665,0.975,1.56,1.941l-1.005,9.229
		C18.167,20.46,17.404,21.129,16.518,21.129"/>
	<path opacity="0.6" fill="#FCB91F" d="M23.296,20.791c-0.901,0-1.67-0.689-1.751-1.605l-0.792-8.891
		c-0.086-0.969,0.629-1.824,1.598-1.91c0.968-0.083,1.824,0.629,1.91,1.598l0.792,8.891c0.086,0.968-0.629,1.824-1.598,1.91
		C23.401,20.789,23.349,20.791,23.296,20.791"/>
	<path opacity="0.6" fill="#FCB91F" d="M30.952,20.792c-0.806,0-1.532-0.557-1.717-1.376l-1.992-8.892
		c-0.213-0.948,0.385-1.89,1.333-2.103c0.949-0.214,1.891,0.384,2.104,1.333l1.993,8.891c0.212,0.949-0.385,1.891-1.334,2.103
		C31.209,20.778,31.08,20.792,30.952,20.792"/>
	<path fill="#FFFFFF" d="M33.598,29.903l-5.772-15.425c-0.455-0.941-3.195-0.556-6.12,0.859c-2.926,1.415-4.928,3.325-4.473,4.266
		l8.513,14.1c0.646,1.335,2.929,1.569,5.098,0.52C33.011,33.174,34.245,31.239,33.598,29.903z"/>
	<path fill="#231F20" d="M34.246,29.589l0.026,0.062l-0.625-1.701c-0.402-1.109-0.795-2.19-1.171-3.227
		c-0.371-1.039-0.727-2.036-1.062-2.975c-0.329-0.941-0.638-1.825-0.921-2.636c-0.275-0.815-0.526-1.558-0.748-2.214
		c-0.21-0.662-0.392-1.235-0.542-1.708c-0.144-0.475-0.221-0.861-0.31-1.113c-0.005-0.015-0.017-0.024-0.023-0.037
		c-0.007-0.018-0.012-0.043-0.019-0.06c-0.12-0.21-0.309-0.458-0.539-0.594c-0.058-0.04-0.117-0.079-0.181-0.116
		c-0.059-0.028-0.114-0.05-0.175-0.074c-0.118-0.046-0.256-0.103-0.367-0.12c-0.49-0.124-0.956-0.108-1.44-0.05
		c-0.486,0.058-0.995,0.162-1.528,0.315c-0.531,0.156-1.091,0.349-1.669,0.58c-0.578,0.231-1.171,0.512-1.776,0.826
		s-1.221,0.669-1.826,1.083c-0.606,0.413-1.211,0.869-1.771,1.439c-0.283,0.281-0.554,0.596-0.79,0.996l-0.087,0.151l-0.076,0.177
		c-0.025,0.06-0.049,0.117-0.072,0.181l-0.051,0.215c-0.039,0.132-0.034,0.322-0.025,0.49c0.012,0.062,0.029,0.128,0.046,0.194
		c-0.209,0.213-0.338,0.416-0.27,0.52c0.16,0.255,0.415,0.554,0.705,0.974c0.285,0.424,0.629,0.935,1.023,1.519
		c0.384,0.592,0.817,1.26,1.29,1.99c0.466,0.735,0.972,1.534,1.511,2.382c0.532,0.852,1.096,1.755,1.684,2.696
		c0.583,0.944,1.19,1.927,1.812,2.934l0.849,1.388l-0.032-0.059c0.212,0.43,0.556,0.78,0.928,1.014
		c0.374,0.234,0.774,0.381,1.166,0.458c1.453,0.27,2.839-0.084,4.056-0.685c0.608-0.306,1.182-0.69,1.693-1.16
		c0.51-0.468,0.961-1.028,1.263-1.714c0.141-0.339,0.26-0.705,0.275-1.114C34.498,30.413,34.429,29.981,34.246,29.589z
		 M26.799,14.963c0.001,0.002-0.002,0.006-0.001,0.009c0,0,0,0.001,0,0.001c-0.005-0.005-0.002-0.016-0.005-0.023
		C26.795,14.954,26.797,14.959,26.799,14.963z M26.809,14.983c0.016,0.032,0.035,0.07,0.052,0.104
		c-0.037-0.025-0.068-0.061-0.061-0.107C26.803,14.981,26.807,14.982,26.809,14.983z M20.131,17.014
		c0.564-0.354,1.142-0.665,1.713-0.929c0.569-0.266,1.13-0.493,1.664-0.673c0.537-0.177,1.048-0.308,1.516-0.394
		c0.466-0.086,0.889-0.12,1.234-0.112c0.221,0.003,0.406,0.033,0.537,0.073c-0.05,0.119-0.134,0.27-0.251,0.43
		c-0.199,0.27-0.477,0.581-0.831,0.888c-0.35,0.312-0.762,0.632-1.227,0.942c-0.47,0.304-0.987,0.607-1.545,0.891
		c-0.556,0.287-1.156,0.543-1.78,0.772c-0.625,0.216-1.283,0.406-1.936,0.497c-0.267,0.041-0.529,0.055-0.775,0.048
		c-0.074-0.18-0.145-0.333-0.24-0.435c-0.056-0.06-0.131-0.09-0.217-0.102c0.14-0.224,0.335-0.458,0.563-0.67
		C19.019,17.78,19.574,17.375,20.131,17.014z M32.935,31.388c-0.188,0.45-0.517,0.888-0.922,1.258
		c-0.402,0.374-0.872,0.692-1.375,0.945c-0.999,0.506-2.176,0.759-3.166,0.55c-0.53-0.113-0.949-0.38-1.115-0.734
		c-0.008-0.015-0.016-0.031-0.024-0.046l-0.006-0.009l-0.833-1.397c-0.6-1.021-1.184-2.017-1.746-2.974
		c-0.559-0.958-1.095-1.878-1.601-2.745c-0.498-0.874-0.966-1.696-1.396-2.452c-0.423-0.76-0.81-1.455-1.154-2.071
		c-0.18-0.331-0.345-0.635-0.497-0.921c0.102-0.009,0.207-0.013,0.306-0.025c0.786-0.1,1.515-0.298,2.21-0.52
		c0.694-0.224,1.354-0.484,1.969-0.767c0.617-0.28,1.198-0.577,1.734-0.883c0.535-0.311,1.026-0.631,1.472-0.951
		c0.337-0.24,0.631-0.493,0.906-0.75c0.092,0.212,0.185,0.425,0.285,0.663c0.266,0.64,0.566,1.364,0.896,2.158
		c0.321,0.797,0.672,1.665,1.046,2.589c0.363,0.928,0.749,1.914,1.151,2.941c0.4,1.027,0.816,2.1,1.244,3.2l0.644,1.693
		c0.007,0.019,0.017,0.04,0.024,0.058C33.14,30.518,33.127,30.946,32.935,31.388z"/>
	<path fill="#FBC6BB" d="M44.817,29.163h-4.908c-1.516,0-3.941,0.357-5.393,0.794l-1.016,0.306
		c-1.451,0.438-3.541,1.143-4.645,1.569c-1.103,0.426-2.479,0.532-3.056,0.237c-0.577-0.296-0.022-1.232,1.232-2.081l0.232-0.157
		c1.255-0.849,1.075-1.256-0.398-0.905l-0.628,0.149c-1.475,0.351-3.155,0.627-3.734,0.613c-0.579-0.014-0.975-0.395-0.879-0.847
		c0.095-0.452,1.376-1.124,2.845-1.493l0.307-0.077c1.469-0.37,1.641-0.41,0.126-0.405h-1.929c-1.516,0.005-2.964-0.138-2.951-0.814
		c0.007-0.328,0.272-0.84,0.865-0.959c2.403-0.484,5.52-0.74,5.577-0.861c0.065-0.139-2.752-0.627-2.752-0.627
		c-1.482-0.312-2.924-0.727-2.847-1.279c0.042-0.294,0.217-0.641,0.693-0.797s1.777-0.233,2.892-0.172
		c1.116,0.062,2.937,0.238,4.049,0.394c1.109,0.155,1.62-0.82,1.132-2.167c-0.488-1.347-0.296-2.516,0.425-2.598
		c0.722-0.082,1.715,0.775,2.207,1.905c0.492,1.131,1.265,2.51,1.717,3.064c0.452,0.556,2.061,1.065,3.574,1.134l1.111,0.05
		c1.514,0.068,3.517,0.057,4.451-0.025c0.934-0.082,1.732-0.138,1.773-0.124c0.041,0.013,0.074,0.024,0.074,0.024"/>
	<path fill="#231F20" d="M44.817,28.021c-0.535,0.018-1.295,0.081-2.27,0.11c-0.489,0.016-1.029,0.032-1.619,0.051
		c-0.294,0.008-0.601,0.016-0.919,0.023c-0.331,0.008-0.699,0.026-1.052,0.059c-0.715,0.063-1.459,0.166-2.242,0.304
		c-0.783,0.145-1.602,0.311-2.473,0.583c-0.807,0.245-1.652,0.547-2.53,0.859c-0.878,0.308-1.788,0.627-2.727,0.956
		c-0.22,0.078-0.441,0.156-0.665,0.234c-0.204,0.069-0.42,0.127-0.638,0.171c-0.404,0.083-0.839,0.121-1.202,0.089
		c0.208-0.275,0.536-0.569,0.887-0.815c0.197-0.143,0.451-0.302,0.702-0.505c0.125-0.1,0.253-0.212,0.388-0.356
		c0.033-0.033,0.072-0.086,0.107-0.13l0.053-0.069l0.062-0.103l0.056-0.108c0.02-0.04,0.043-0.118,0.057-0.179l0.02-0.097
		c0.005-0.028,0.01-0.064,0.006-0.123c-0.004-0.103-0.024-0.21-0.059-0.306c-0.063-0.177-0.268-0.383-0.355-0.417
		c-0.057-0.034-0.117-0.064-0.178-0.089c-0.047-0.017-0.08-0.024-0.121-0.035c-0.178-0.045-0.264-0.037-0.383-0.044
		c-0.199,0.003-0.371,0.024-0.532,0.05c-0.161,0.026-0.312,0.06-0.464,0.095l-0.413,0.1c-1.076,0.266-2.192,0.498-3.292,0.638
		c-0.133,0.014-0.27,0.028-0.387,0.032c-0.123,0.005-0.178,0-0.236-0.014c-0.018-0.004-0.017-0.008-0.029-0.013
		c0.024-0.02,0.047-0.04,0.073-0.06c0.184-0.131,0.418-0.26,0.661-0.374c0.49-0.229,1.023-0.409,1.571-0.549l0.879-0.225
		c0.152-0.041,0.295-0.077,0.478-0.136c0.055-0.02,0.09-0.028,0.195-0.079c0.018-0.008,0.081-0.044,0.117-0.07
		c0.042-0.03,0.109-0.092,0.15-0.148l0.017-0.022l0.03-0.047c0.028-0.05,0.054-0.108,0.07-0.171
		c0.033-0.125,0.025-0.262-0.002-0.354c-0.027-0.099-0.085-0.204-0.159-0.283c-0.097-0.097-0.098-0.085-0.127-0.107
		c-0.046-0.031-0.121-0.066-0.151-0.076c-0.037-0.013-0.095-0.029-0.117-0.033c-0.183-0.033-0.244-0.028-0.338-0.034
		c-0.654-0.013-1.231,0.002-1.847,0c-0.612-0.001-1.22,0.014-1.792-0.016c-0.288-0.014-0.573-0.038-0.836-0.083
		c-0.205-0.031-0.406-0.091-0.524-0.143c0.001-0.003,0.001-0.005,0.003-0.008c0.061-0.111,0.149-0.184,0.279-0.215
		c0.009-0.003,0.042-0.01,0.083-0.018l0.109-0.021l0.221-0.042l0.443-0.079l0.894-0.144c0.598-0.09,1.199-0.171,1.804-0.248
		c0.613-0.081,1.188-0.139,1.854-0.251c0.046-0.009,0.091-0.018,0.16-0.036l0.054-0.015c0.024-0.008,0.074-0.026,0.108-0.043
		l0.029-0.013l0.045-0.027c0.024-0.015,0.048-0.031,0.07-0.049c0.045-0.037,0.088-0.08,0.123-0.127
		c0.018-0.023,0.033-0.047,0.047-0.071s0.024-0.041,0.047-0.1c0.035-0.099,0.052-0.235,0.025-0.361
		c-0.012-0.062-0.033-0.121-0.057-0.17c-0.013-0.025-0.025-0.048-0.039-0.069l-0.018-0.026c-0.033-0.043-0.071-0.085-0.113-0.122
		c-0.021-0.019-0.044-0.035-0.066-0.051l-0.029-0.02l-0.045-0.026c-0.031-0.017-0.064-0.033-0.075-0.038l-0.096-0.038l-0.146-0.047
		c-0.173-0.051-0.327-0.088-0.482-0.125c-0.308-0.072-0.609-0.134-0.911-0.195l-0.899-0.17l-0.226-0.041l-0.099-0.019l-0.103-0.023
		l-0.422-0.096c-0.558-0.134-1.134-0.29-1.563-0.498c-0.039-0.018-0.07-0.037-0.102-0.056c0.019-0.018,0.035-0.035,0.066-0.053
		c0.075-0.052,0.344-0.097,0.609-0.126c0.268-0.029,0.546-0.046,0.823-0.056c0.563-0.016,1.102,0,1.666,0.045
		c0.564,0.042,1.128,0.095,1.687,0.153c0.559,0.058,1.113,0.122,1.654,0.196c0.214,0.028,0.665,0.118,1.105-0.001
		c0.45-0.107,0.886-0.464,1.085-0.87c0.203-0.405,0.243-0.807,0.229-1.164c-0.019-0.358-0.09-0.69-0.195-0.993
		c-0.084-0.258-0.144-0.447-0.185-0.67c-0.039-0.213-0.058-0.424-0.048-0.61c0.005-0.161,0.042-0.297,0.074-0.362
		c0.063,0.011,0.176,0.049,0.297,0.127c0.141,0.088,0.287,0.213,0.419,0.354c0.27,0.285,0.482,0.627,0.636,0.992
		c0.198,0.465,0.409,0.907,0.629,1.336s0.446,0.843,0.697,1.251c0.127,0.205,0.255,0.405,0.42,0.622
		c0.029,0.043,0.114,0.136,0.179,0.203c0.069,0.072,0.13,0.116,0.196,0.174c0.127,0.097,0.25,0.179,0.369,0.246
		c0.474,0.271,0.914,0.422,1.354,0.556c0.436,0.127,0.864,0.219,1.288,0.284c0.419,0.066,0.864,0.094,1.214,0.115
		c0.371,0.024,0.732,0.047,1.082,0.069c1.418,0.078,2.638,0.103,3.689,0.092c0.552-0.012,0.992-0.021,1.381-0.016
		c0.195,0,0.376,0,0.537-0.005c0.076-0.004,0.149-0.008,0.22-0.011c0.022-0.002,0.075-0.005,0.041-0.007l-0.026-0.002
		c-0.085-0.005-0.172-0.02-0.252-0.045c-0.026-0.009-0.029-0.01-0.03-0.01l0.005,0.001l0.013,0.003l0.047,0.011
		c1.293,0.292,1.487-1.922,0.737-2.161l-0.06-0.02l-0.015-0.004l-0.008-0.003c-0.025-0.008-0.088-0.026-0.131-0.034
		c-0.27-0.042-0.216-0.019-0.256-0.025c-0.098,0-0.127,0.004-0.18,0.008c-0.087,0.007-0.176,0.016-0.269,0.024
		c-0.175,0.021-0.36,0.044-0.56,0.067c-0.396,0.048-0.846,0.123-1.298,0.159c-0.956,0.072-2.164,0.112-3.519,0.097
		c-0.345-0.009-0.701-0.018-1.067-0.026c-0.388-0.01-0.702-0.019-1.055-0.062c-0.683-0.08-1.464-0.259-2.034-0.556
		c-0.069-0.035-0.125-0.072-0.171-0.104c-0.014-0.013-0.044-0.031-0.048-0.037c-0.008-0.013-0.003,0.007-0.037-0.039
		c-0.104-0.127-0.221-0.295-0.334-0.467c-0.226-0.347-0.447-0.727-0.66-1.118c-0.213-0.392-0.418-0.799-0.604-1.213
		c-0.231-0.518-0.552-1.017-0.975-1.448c-0.213-0.216-0.451-0.42-0.741-0.596c-0.292-0.17-0.637-0.334-1.106-0.356
		c-0.226-0.007-0.532,0.043-0.79,0.191c-0.253,0.151-0.438,0.363-0.555,0.567c-0.227,0.41-0.268,0.777-0.285,1.118
		c-0.021,0.67,0.145,1.3,0.338,1.835c0.15,0.391,0.16,0.816,0.072,0.98c-0.047,0.075-0.061,0.088-0.139,0.119
		c-0.091,0.024-0.194,0.021-0.532-0.027c-0.565-0.07-1.13-0.128-1.701-0.182c-0.571-0.053-1.146-0.101-1.731-0.138
		c-0.584-0.041-1.209-0.054-1.814-0.027c-0.306,0.013-0.613,0.032-0.931,0.068c-0.161,0.021-0.321,0.041-0.497,0.077
		c-0.171,0.034-0.404,0.094-0.616,0.211c-0.215,0.114-0.427,0.288-0.58,0.507c-0.156,0.218-0.25,0.468-0.288,0.715
		c-0.005,0.018-0.012,0.093-0.011,0.154c-0.001,0.063,0.003,0.127,0.011,0.188c0.02,0.116,0.062,0.22,0.109,0.322
		c0.046,0.08,0.096,0.15,0.151,0.221c0.051,0.061,0.099,0.102,0.15,0.151c0.196,0.167,0.373,0.265,0.537,0.344
		c0.531,0.249,1.023,0.386,1.515,0.509c-0.026,0.004-0.052,0.007-0.078,0.011l-0.921,0.149l-0.461,0.083l-0.231,0.044l-0.116,0.022
		c-0.035,0.007-0.077,0.015-0.144,0.031c-0.48,0.11-0.929,0.457-1.155,0.901c-0.06,0.111-0.105,0.23-0.141,0.359
		c-0.033,0.135-0.062,0.254-0.046,0.458c0.009,0.197,0.089,0.406,0.194,0.558c0.11,0.16,0.226,0.255,0.344,0.343
		c0.445,0.279,0.801,0.336,1.146,0.404c0.338,0.057,0.66,0.083,0.978,0.101c-0.123,0.07-0.246,0.143-0.371,0.231
		c-0.153,0.118-0.308,0.23-0.479,0.447c-0.046,0.064-0.09,0.136-0.13,0.206c-0.043,0.092-0.087,0.221-0.1,0.298
		c-0.028,0.149-0.031,0.313-0.005,0.474c0.056,0.324,0.238,0.611,0.451,0.793c0.214,0.188,0.454,0.299,0.686,0.358
		c0.229,0.062,0.476,0.068,0.645,0.061c0.177-0.007,0.33-0.021,0.486-0.037c0.941-0.108,1.83-0.278,2.706-0.468
		c-0.262,0.227-0.512,0.484-0.742,0.812c-0.102,0.145-0.199,0.329-0.275,0.549c-0.068,0.227-0.134,0.582,0.056,0.971
		c0.045,0.097,0.104,0.178,0.172,0.251c0.068,0.08,0.139,0.14,0.208,0.183c0.161,0.111,0.245,0.135,0.354,0.183
		c0.194,0.066,0.377,0.11,0.542,0.13c0.662,0.085,1.227,0.021,1.79-0.078c0.279-0.052,0.554-0.121,0.824-0.206
		c0.249-0.083,0.496-0.166,0.741-0.248c0.923-0.301,1.817-0.593,2.68-0.875c0.86-0.282,1.688-0.554,2.511-0.776
		c1.52-0.407,3.058-0.59,4.343-0.658c0.328-0.016,0.62-0.016,0.927-0.009c0.318,0.008,0.625,0.016,0.919,0.023
		c0.59,0.017,1.13,0.031,1.619,0.045c0.975,0.031,1.742,0.095,2.27,0.1C46.187,30.304,46.261,27.978,44.817,28.021z"/>
</g>
</svg>
