<?xml version="1.0" encoding="utf-8"?>
<!-- Generator: Adobe Illustrator 16.0.0, SVG Export Plug-In . SVG Version: 6.00 Build 0)  -->
<!DOCTYPE svg PUBLIC "-//W3C//DTD SVG 1.1//EN" "http://www.w3.org/Graphics/SVG/1.1/DTD/svg11.dtd">
<svg version="1.1" id="Layer_1" xmlns="http://www.w3.org/2000/svg" xmlns:xlink="http://www.w3.org/1999/xlink" x="0px" y="0px"
	 width="48px" height="48px" viewBox="0 0 48 48" enable-background="new 0 0 48 48" xml:space="preserve">
<g>
	<path fill="#FFFFFF" d="M37.901,25.253c-0.03-2.409-0.061-4.9-0.214-8.408c-0.049-1.13-0.092-2.224-0.133-3.265
		c-0.08-2.032-0.161-4.09-0.274-5.782c-1.197,0.108-2.406,0.222-3.638,0.34C28.78,8.606,23.76,9.08,18.877,9.109
		c0.022,2.594,0.121,6.225,0.275,10.069c0.372,0.436,0.69,1.176,0.686,2.478c-0.021,0.667-0.181,1.369-0.337,2.049
		c-0.001,0.004-0.001,0.008-0.002,0.011c-0.039,0.169-0.076,0.34-0.113,0.511c0.183,3.535,0.406,6.952,0.654,9.625
		c6.688-0.144,12.6-0.581,18.055-1.334C37.96,29.722,37.93,27.523,37.901,25.253z"/>
	<path fill="#FFFFFF" d="M18.873,7.985c4.832-0.029,9.825-0.501,14.663-0.966c1.239-0.119,2.456-0.233,3.661-0.341
		c-0.117-1.34-0.265-2.311-0.467-2.611C34.937,3.542,20.644,4.628,18.96,5.401C18.902,5.768,18.874,6.683,18.873,7.985z"/>
	<path fill="#FFFFFF" d="M28.404,35.896c-0.135,0.271-0.107,0.701,0.413,1.022c0.001,0,0.001,0.001,0.001,0.001
		c0.248,0.154,0.488,0.161,0.718,0.023c0.257-0.158,0.426-0.469,0.404-0.742c-0.021-0.248-0.201-0.441-0.535-0.574
		c-0.151-0.059-0.287-0.084-0.406-0.084C28.697,35.542,28.499,35.704,28.404,35.896z"/>
	<path fill="#FFFFFF" d="M38.153,33.644c-2.71,0.372-5.529,0.668-8.5,0.889c0.055,0.017,0.107,0.025,0.163,0.047
		c0.735,0.294,1.188,0.849,1.244,1.526c0.059,0.695-0.318,1.416-0.938,1.795c-0.29,0.178-0.603,0.267-0.918,0.267
		c-0.332,0-0.667-0.098-0.979-0.293c-1.082-0.67-1.188-1.754-0.828-2.478c0.153-0.309,0.417-0.582,0.757-0.762
		c-2.55,0.165-5.208,0.279-8.003,0.34c0.131,1.252,0.269,2.287,0.41,3.015c3.065,0.867,16.785-0.127,17.784-1.334
		C38.266,35.562,38.205,34.575,38.153,33.644z"/>
	<path fill="#FFFFFF" d="M18.705,21.701c0.001-0.02,0.007-0.043,0.008-0.063c0.001-0.258-0.015-0.495-0.043-0.711
		C18.681,21.185,18.693,21.442,18.705,21.701z"/>
	<path fill="#FBC6BB" d="M20.028,42.116c0.62-0.212,1.604-0.249,2.646-0.288c0.972-0.036,2.073-0.077,2.599-0.27
		c0.879-0.323,2.22-0.986,3.261-2.236c-1.091,0.045-2.168,0.069-3.175,0.069c-2.625,0-4.78-0.154-5.502-0.46
		c-0.168-0.071-0.291-0.218-0.33-0.395c-0.393-1.751-0.766-6.116-1.064-10.941c-0.024-0.029-0.056-0.05-0.073-0.086
		c-0.001-0.002-0.003-0.003-0.004-0.005c-0.614-1.281-0.277-2.752,0.02-4.049c0.15-0.656,0.292-1.276,0.308-1.818
		c0.004-1.098-0.271-1.848-0.718-1.943c-0.007-0.001-0.016,0-0.023,0c-0.51-0.083-1.333,0.546-1.878,1.775
		c-1.114,2.254-1.197,4.055-1.303,6.334l-0.034,0.711c-0.044,0.524-0.003,1.09,0.039,1.69c0.103,1.446,0.219,3.084-0.966,4.097
		c-0.445,0.381-0.989,0.978-1.565,1.609c-0.937,1.028-1.905,2.081-2.811,2.646l6.875,7.933c0.21-0.274,0.467-0.665,0.74-1.083
		C17.95,44.061,18.949,42.534,20.028,42.116z"/>
	<path fill="#56AA5B" d="M36.348,20.23v0.876c-0.009,0.043-0.02,0.086-0.03,0.129c-0.076,0.352-0.125,0.712-0.233,1.055
		c-0.302,0.961-0.891,1.748-1.57,2.473c-0.771,0.822-1.645,1.524-2.549,2.189c-0.98,0.721-1.984,1.407-3.062,1.978
		c-0.204,0.109-0.433,0.188-0.659,0.238c-0.209,0.046-0.317-0.073-0.317-0.292c-0.001-0.06,0.007-0.12,0.017-0.179
		c0.041-0.273,0.089-0.545,0.125-0.819c0.08-0.606-0.06-0.812-0.662-0.952c-0.425-0.099-0.86-0.155-1.28-0.271
		c-1.663-0.463-3.096-1.3-4.127-2.712c-1.184-1.62-1.464-3.393-0.708-5.271c0.59-1.465,1.674-2.503,3.044-3.245
		c1.765-0.956,3.653-1.241,5.632-0.963c1.614,0.227,3.064,0.835,4.3,1.91c0.96,0.836,1.641,1.854,1.94,3.105
		C36.269,19.726,36.303,19.979,36.348,20.23 M30.068,21.154c-0.05-0.061-0.076-0.09-0.099-0.121
		c-0.474-0.644-0.947-1.288-1.42-1.932c-0.039-0.052-0.078-0.106-0.126-0.149c-0.118-0.105-0.252-0.144-0.404-0.078
		s-0.247,0.179-0.248,0.346c-0.003,1.046-0.004,2.092,0,3.139c0.001,0.245,0.222,0.416,0.462,0.377
		c0.191-0.031,0.327-0.193,0.328-0.409c0.003-0.574,0.001-1.147,0.002-1.72c0-0.045,0-0.09,0-0.134
		c0.056,0.024,0.076,0.051,0.097,0.079c0.484,0.661,0.969,1.322,1.452,1.984c0.081,0.11,0.176,0.192,0.318,0.203
		c0.27,0.02,0.448-0.162,0.449-0.463c0.001-0.986,0-1.972,0-2.958c0-0.04-0.002-0.081-0.01-0.12
		c-0.038-0.213-0.204-0.359-0.403-0.355c-0.198,0.004-0.364,0.158-0.394,0.369c-0.008,0.054-0.005,0.111-0.005,0.166
		C30.067,19.954,30.068,20.533,30.068,21.154 M32.237,19.656h0.154c0.307,0,0.614,0.001,0.921,0
		c0.272-0.003,0.445-0.161,0.447-0.403c0.002-0.25-0.175-0.41-0.455-0.411c-0.473,0-0.946,0-1.418,0
		c-0.297,0-0.46,0.162-0.461,0.455c-0.001,1.001-0.001,2.002,0,3.003c0,0.28,0.161,0.44,0.438,0.441
		c0.488,0.001,0.976,0.001,1.464,0c0.055,0,0.111-0.004,0.163-0.021c0.188-0.062,0.288-0.23,0.265-0.438
		c-0.02-0.18-0.158-0.327-0.351-0.334c-0.331-0.013-0.663-0.008-0.995-0.011c-0.058-0.001-0.115-0.005-0.167-0.008v-0.729
		c0.366,0,0.717,0,1.069,0c0.271-0.001,0.445-0.159,0.446-0.401c0.002-0.245-0.168-0.407-0.44-0.41
		c-0.307-0.004-0.614-0.001-0.92-0.001h-0.162V19.656z M24.456,21.936c0-0.074,0-0.128,0-0.182c0-0.81,0-1.619,0-2.428
		c0-0.065,0-0.132-0.018-0.193c-0.052-0.188-0.243-0.312-0.425-0.288c-0.2,0.026-0.348,0.18-0.351,0.389
		c-0.006,0.453-0.003,0.905-0.003,1.357c0,0.573-0.002,1.146,0.001,1.719c0.001,0.276,0.159,0.43,0.431,0.43
		c0.503,0.001,1.005,0.003,1.508-0.001c0.218-0.001,0.382-0.165,0.394-0.376c0.012-0.218-0.14-0.405-0.364-0.417
		c-0.266-0.014-0.532-0.007-0.799-0.009C24.711,21.935,24.592,21.936,24.456,21.936 M27.174,20.805L27.174,20.805
		c0.001-0.508,0.003-1.017,0-1.524c0-0.26-0.166-0.438-0.396-0.438c-0.231,0-0.397,0.178-0.397,0.438
		c-0.002,1.012-0.001,2.022,0,3.034c0,0.054,0.006,0.111,0.023,0.162c0.064,0.187,0.246,0.292,0.441,0.261
		c0.186-0.029,0.327-0.19,0.328-0.393C27.177,21.831,27.174,21.317,27.174,20.805"/>
	<path fill="#231F20" d="M39.227,25.237c-0.03-2.404-0.062-4.891-0.215-8.449c-0.043-0.999-0.082-1.968-0.119-2.899l-0.015-0.361
		c-0.111-2.832-0.203-4.891-0.316-6.392c0-0.01-0.001-0.021-0.003-0.031c-0.197-2.593-0.467-3.668-1.029-4.106
		c-0.197-0.154-0.729-0.359-3.062-0.359c-2.071,0-4.779,0.161-6.686,0.295c-5.931,0.418-9.245,0.951-9.85,1.582
		c-0.236,0.249-0.674,0.71-0.136,13.841c-0.002,0-0.005,0-0.007,0c-0.715,0.029-1.454,0.464-2.08,1.225
		c-0.327,0.396-0.601,0.843-0.812,1.32c-1.228,2.481-1.32,4.501-1.428,6.839l-0.033,0.707c0,0,0,0.002,0,0.005
		c-0.048,0.604-0.004,1.235,0.039,1.846c0.089,1.243,0.173,2.416-0.504,2.996c-0.51,0.437-1.081,1.062-1.688,1.729
		c-0.856,0.938-1.827,2.002-2.586,2.453c-0.361,0.214-0.48,0.683-0.266,1.046c0.208,0.347,0.694,0.472,1.045,0.265
		c0.958-0.569,1.964-1.673,2.94-2.744c0.571-0.626,1.11-1.217,1.545-1.589c1.261-1.078,1.141-2.77,1.035-4.272
		c-0.042-0.589-0.081-1.145-0.038-1.657l0.034-0.714c0.104-2.256,0.187-4.038,1.286-6.261c0.479-1.08,1.183-1.663,1.603-1.663
		c0.021,0,0.041,0.001,0.074,0.003c0.272,0.058,0.564,0.629,0.56,1.742c-0.015,0.523-0.155,1.134-0.303,1.779
		c-0.305,1.329-0.65,2.835-0.004,4.183c0.005,0.01,0.011,0.019,0.017,0.028c0.014,0.022,0.029,0.042,0.044,0.059
		c0.242,3.902,0.622,8.931,1.064,10.899c0.053,0.24,0.22,0.44,0.447,0.536c1.014,0.43,4.24,0.476,5.58,0.476
		c0.861,0,1.771-0.018,2.711-0.051c-0.944,0.982-2.06,1.534-2.866,1.83c-0.496,0.182-1.581,0.222-2.542,0.258
		c-1.055,0.04-2.051,0.077-2.706,0.301c-1.139,0.44-2.157,1.995-3.055,3.368c-0.282,0.433-0.574,0.88-0.792,1.151
		c-0.262,0.328-0.209,0.808,0.119,1.071c0.134,0.107,0.303,0.167,0.476,0.167c0.233,0,0.45-0.104,0.597-0.287
		c0.259-0.324,0.545-0.762,0.881-1.277c0.655-1,1.644-2.51,2.294-2.762c0.415-0.142,1.345-0.176,2.255-0.21
		c1.17-0.044,2.276-0.086,2.998-0.35c1.845-0.679,3.346-1.839,4.346-3.359c2.12-0.13,6.978-0.526,8.708-1.494
		c0.522-0.292,0.82-0.66,0.885-1.092c0.009-0.057,0.011-0.114,0.007-0.17C39.306,31.623,39.267,28.521,39.227,25.237z
		 M29.434,36.771c-0.167,0.099-0.325,0.091-0.507-0.02c-0.001-0.001-0.002-0.002-0.004-0.002c-0.405-0.251-0.441-0.559-0.339-0.764
		c0.045-0.09,0.158-0.242,0.417-0.242c0.101,0,0.213,0.023,0.332,0.07c0.389,0.155,0.404,0.343,0.41,0.405
		C29.757,36.415,29.625,36.653,29.434,36.771z M27.518,34.874c-0.121,0.131-0.223,0.277-0.3,0.433
		c-0.396,0.797-0.288,1.986,0.879,2.723c-1.173,0.057-2.302,0.087-3.316,0.087c-1.883,0-3.277-0.1-4.047-0.289
		c-0.119-0.644-0.24-1.537-0.361-2.659C22.813,35.112,25.213,35.013,27.518,34.874z M31.26,36.089
		c-0.048-0.574-0.348-1.068-0.844-1.415c2.59-0.205,5.125-0.475,7.549-0.803c0.048,0.843,0.104,1.733,0.173,2.706
		c-0.571,0.467-3.708,0.996-7.646,1.301C31.015,37.435,31.316,36.751,31.26,36.089z M20.222,33.647
		c-0.224-2.45-0.444-5.704-0.636-9.401c0.036-0.162,0.071-0.324,0.11-0.497c0.158-0.688,0.321-1.399,0.342-2.092
		c0.004-1.12-0.228-1.979-0.688-2.554c-0.147-3.677-0.246-7.227-0.271-9.795c4.922-0.042,10.051-0.535,14.583-0.97
		c1.162-0.112,2.303-0.22,3.433-0.322c0.107,1.663,0.185,3.649,0.26,5.572l0.003,0.094c0.04,1.013,0.082,2.075,0.129,3.171
		c0.152,3.488,0.183,5.968,0.213,8.402c0.027,2.126,0.055,4.324,0.185,7.089C32.536,33.075,26.754,33.501,20.222,33.647z
		 M19.073,7.784c0.004-1.328,0.038-1.951,0.07-2.241c1.661-0.609,11.099-1.414,15.503-1.414c1.169,0,1.706,0.057,1.951,0.111
		c0.105,0.219,0.247,0.799,0.381,2.257c-1.14,0.103-2.291,0.211-3.462,0.323C29.014,7.252,23.92,7.742,19.073,7.784z"/>
</g>
</svg>
