<?xml version="1.0" encoding="utf-8"?>
<!-- Generator: Adobe Illustrator 16.0.0, SVG Export Plug-In . SVG Version: 6.00 Build 0)  -->
<!DOCTYPE svg PUBLIC "-//W3C//DTD SVG 1.1//EN" "http://www.w3.org/Graphics/SVG/1.1/DTD/svg11.dtd">
<svg version="1.1" id="Layer_1" xmlns="http://www.w3.org/2000/svg" xmlns:xlink="http://www.w3.org/1999/xlink" x="0px" y="0px"
	 width="48px" height="48px" viewBox="0 0 48 48" enable-background="new 0 0 48 48" xml:space="preserve">
<g>
	<path fill="#D32026" d="M18.321,22.699c-0.038,0.212-0.087,0.421-0.133,0.63c-0.03,0.137-0.057,0.274-0.087,0.409
		c-0.04,0.176-0.08,0.353-0.118,0.528c0.182,3.438,0.4,6.758,0.642,9.38c6.535-0.146,12.324-0.575,17.663-1.305
		c-0.128-2.712-0.156-4.864-0.185-7.086c-0.03-2.411-0.062-4.9-0.214-8.402c-0.047-1.099-0.089-2.163-0.129-3.178l-0.004-0.088
		c-0.074-1.895-0.153-3.896-0.261-5.572c-1.092,0.1-2.19,0.202-3.312,0.31l-0.12,0.012c-4.804,0.462-9.76,0.928-14.595,0.968
		c0.021,2.557,0.12,6.062,0.271,9.77c0.176,0.216,0.333,0.506,0.456,0.875c0.148,0.439,0.246,0.988,0.244,1.708
		C18.43,22,18.384,22.346,18.322,22.69C18.322,22.693,18.322,22.696,18.321,22.699z"/>
	<g>
		<path fill="#FFFFFF" d="M33.041,18.211c0.03-0.074,0.062-0.135,0.081-0.198c0.023-0.075,0.045-0.152,0.054-0.229
			c0.007-0.059-0.029-0.083-0.081-0.052c-0.075,0.045-0.149,0.095-0.213,0.155c-0.399,0.375-0.718,0.814-1.002,1.281
			c-0.271,0.443-0.52,0.897-0.735,1.37c-0.013,0.026-0.022,0.054-0.032,0.08c0.004,0.004,0.008,0.008,0.013,0.012
			c0.035-0.025,0.071-0.049,0.104-0.077c0.357-0.311,0.671-0.662,0.968-1.028c0.137-0.169,0.263-0.348,0.392-0.521
			c0.055-0.074,0.119-0.121,0.228-0.104c-0.015,0.027-0.023,0.05-0.036,0.069c-0.489,0.729-1.054,1.391-1.741,1.941
			c-0.046,0.037-0.09,0.088-0.112,0.142c-0.107,0.26-0.195,0.526-0.231,0.808c-0.006,0.044-0.005,0.091,0.003,0.135
			c0.021,0.104,0.099,0.136,0.18,0.067c0.066-0.056,0.134-0.119,0.18-0.191c0.174-0.273,0.339-0.553,0.508-0.829
			c0.213-0.345,0.45-0.67,0.772-0.923c0.091-0.072,0.187-0.137,0.303-0.162c0.13-0.028,0.243-0.009,0.329,0.103
			c0.008,0.011,0.019,0.021,0.027,0.029c0.004,0.003,0.009,0.003,0.022,0.007c0.03-0.113,0.122-0.12,0.22-0.12
			c0.075,0,0.15-0.006,0.225-0.009c0.089-0.003,0.105,0.02,0.065,0.098c-0.201,0.396-0.404,0.791-0.603,1.188
			c-0.103,0.204-0.2,0.411-0.296,0.619c-0.013,0.026,0.001,0.065,0.003,0.099c0.035-0.007,0.076-0.004,0.104-0.022
			c0.188-0.133,0.321-0.316,0.448-0.506c0.03-0.045,0.062-0.09,0.084-0.139c0.028-0.063,0.069-0.09,0.139-0.072
			c0.019,0.005,0.038,0.006,0.062,0.009c-0.004,0.013-0.004,0.022-0.009,0.029c-0.201,0.344-0.417,0.677-0.713,0.946
			c-0.101,0.093-0.22,0.17-0.341,0.231c-0.2,0.101-0.351,0.005-0.367-0.219c-0.003-0.031-0.004-0.062-0.006-0.111
			c-0.025,0.024-0.042,0.039-0.06,0.054c-0.1,0.086-0.194,0.177-0.299,0.256c-0.051,0.039-0.114,0.066-0.177,0.083
			c-0.172,0.048-0.313-0.039-0.354-0.214c-0.017-0.071-0.02-0.146-0.03-0.235c-0.029,0.033-0.05,0.061-0.074,0.085
			c-0.108,0.108-0.212,0.224-0.33,0.321c-0.113,0.092-0.251,0.138-0.394,0.066c-0.144-0.07-0.18-0.207-0.187-0.354
			c-0.011-0.212,0.05-0.413,0.103-0.614c0.027-0.104,0.056-0.209,0.087-0.325c-0.088,0.013-0.167,0.021-0.243,0.038
			c-0.02,0.005-0.037,0.036-0.05,0.059c-0.154,0.294-0.32,0.579-0.539,0.831c-0.142,0.163-0.301,0.308-0.493,0.411
			c-0.047,0.025-0.1,0.046-0.152,0.057c-0.225,0.047-0.382-0.07-0.407-0.3c-0.022-0.2,0.01-0.394,0.074-0.582
			c0.186-0.542,0.481-1.015,0.91-1.396c0.104-0.093,0.231-0.157,0.351-0.229c0.04-0.024,0.089-0.036,0.135-0.046
			c0.229-0.045,0.377,0.068,0.396,0.3c0.018,0.194-0.035,0.377-0.101,0.557c-0.02,0.055-0.04,0.108-0.061,0.164
			c0.125,0.02,0.243-0.04,0.286-0.14c0.3-0.692,0.646-1.358,1.086-1.974c0.317-0.442,0.672-0.851,1.09-1.199
			c0.113-0.094,0.248-0.165,0.38-0.234c0.055-0.028,0.127-0.029,0.192-0.029c0.084,0,0.133,0.048,0.147,0.132
			c0.033,0.184-0.021,0.351-0.113,0.506C33.178,18.217,33.116,18.219,33.041,18.211 M31.729,21.897
			c0.01,0.111,0.074,0.149,0.168,0.091c0.051-0.032,0.1-0.073,0.137-0.12c0.065-0.083,0.13-0.17,0.181-0.263
			c0.231-0.426,0.458-0.854,0.684-1.282c0.014-0.025,0.011-0.077-0.007-0.097c-0.018-0.021-0.07-0.03-0.096-0.02
			c-0.057,0.025-0.112,0.061-0.156,0.104c-0.399,0.394-0.672,0.868-0.867,1.389C31.749,21.762,31.743,21.831,31.729,21.897
			 M29.464,20.902c-0.203,0.311-0.386,0.616-0.449,0.977c-0.008,0.044-0.004,0.091,0.004,0.135c0.019,0.095,0.088,0.142,0.18,0.113
			c0.057-0.018,0.113-0.049,0.157-0.089c0.23-0.206,0.385-0.466,0.517-0.74c0.017-0.034,0.008-0.056-0.025-0.07
			C29.69,21.16,29.564,21.058,29.464,20.902 M30.142,20.485c-0.006-0.178-0.121-0.242-0.268-0.146
			c-0.063,0.042-0.123,0.097-0.167,0.157c-0.156,0.215-0.051,0.488,0.214,0.582c0.018,0.006,0.058-0.008,0.065-0.022
			C30.075,20.876,30.146,20.69,30.142,20.485"/>
		<path fill="#FFFFFF" d="M22.575,20.285c-0.124,0.029-0.231,0.039-0.295,0.172c-0.15,0.31-0.324,0.609-0.567,0.858
			c-0.126,0.129-0.265,0.248-0.407,0.357c-0.068,0.052-0.157,0.085-0.241,0.103c-0.206,0.045-0.361-0.063-0.405-0.271
			c-0.047-0.222-0.016-0.438,0.058-0.649c0.201-0.586,0.542-1.071,1.034-1.45c0.126-0.098,0.261-0.172,0.421-0.195
			c0.213-0.032,0.364,0.086,0.385,0.301c0.019,0.192-0.032,0.373-0.095,0.552c-0.008,0.022-0.004,0.049-0.006,0.074
			c0.023-0.006,0.049-0.007,0.069-0.018c0.214-0.109,0.375-0.279,0.538-0.451c0.141-0.146,0.294-0.282,0.451-0.41
			c0.119-0.097,0.263-0.144,0.42-0.129c0.198,0.018,0.316,0.153,0.305,0.353c-0.011,0.198-0.091,0.367-0.232,0.507
			c-0.019,0.019-0.043,0.034-0.066,0.046c-0.105,0.052-0.205-0.012-0.206-0.13c-0.001-0.148,0.13-0.318,0.275-0.35
			c0.047-0.01,0.075-0.025,0.071-0.078c-0.004-0.055-0.028-0.092-0.083-0.101c-0.077-0.013-0.147,0.012-0.201,0.062
			c-0.11,0.104-0.224,0.207-0.318,0.324c-0.267,0.327-0.449,0.7-0.568,1.104c-0.03,0.101-0.041,0.204-0.005,0.308
			c0.04,0.11,0.128,0.171,0.238,0.133c0.097-0.032,0.195-0.08,0.271-0.146c0.248-0.212,0.438-0.477,0.621-0.744
			c0.187-0.271,0.373-0.541,0.569-0.804c0.128-0.171,0.28-0.321,0.462-0.438c0.066-0.042,0.139-0.079,0.213-0.103
			c0.141-0.046,0.264-0.006,0.367,0.119c0.042-0.109,0.131-0.09,0.209-0.095c0.082-0.005,0.163-0.009,0.244-0.012
			c0.083-0.004,0.09,0.007,0.051,0.082c-0.172,0.335-0.345,0.669-0.518,1.003c-0.123,0.239-0.246,0.479-0.37,0.719
			c-0.016,0.03-0.032,0.062-0.037,0.095c-0.004,0.025,0.001,0.064,0.017,0.078c0.016,0.013,0.059,0.009,0.079-0.005
			c0.064-0.046,0.134-0.09,0.183-0.15c0.139-0.167,0.271-0.34,0.399-0.515c0.062-0.083,0.116-0.111,0.22-0.087
			c0,0.006,0.002,0.014-0.002,0.019c-0.244,0.396-0.502,0.783-0.863,1.086c-0.073,0.062-0.155,0.119-0.243,0.157
			c-0.215,0.094-0.365-0.012-0.366-0.244c0-0.021,0-0.04,0-0.078c-0.023,0.023-0.038,0.038-0.052,0.053
			c-0.119,0.126-0.241,0.249-0.407,0.311c-0.06,0.021-0.128,0.034-0.191,0.031c-0.123-0.006-0.224-0.093-0.236-0.215
			c-0.011-0.102,0.005-0.207,0.01-0.311c0.002-0.024,0.009-0.048,0.002-0.08c-0.051,0.052-0.098,0.105-0.15,0.153
			c-0.147,0.13-0.289,0.27-0.449,0.381c-0.097,0.067-0.222,0.104-0.339,0.128c-0.227,0.049-0.425-0.084-0.494-0.313
			c-0.064-0.213-0.04-0.423,0.036-0.627c0.05-0.136,0.109-0.268,0.166-0.401C22.552,20.335,22.562,20.315,22.575,20.285
			 M25.438,19.305c-0.092,0.021-0.176,0.087-0.238,0.174c-0.185,0.26-0.372,0.52-0.543,0.789c-0.14,0.22-0.248,0.457-0.301,0.716
			c-0.012,0.054-0.011,0.106,0.041,0.141s0.095,0.003,0.137-0.025c0.121-0.086,0.213-0.198,0.281-0.326
			c0.242-0.451,0.479-0.905,0.717-1.358C25.569,19.344,25.538,19.3,25.438,19.305 M21.703,20.024
			c-0.012,0.01-0.02,0.015-0.024,0.021c-0.194,0.29-0.356,0.594-0.427,0.939c-0.011,0.053-0.008,0.113,0.005,0.167
			c0.024,0.098,0.106,0.138,0.2,0.099c0.051-0.021,0.1-0.055,0.142-0.092c0.243-0.216,0.395-0.498,0.544-0.78
			c0.021-0.038,0.001-0.054-0.032-0.063C21.944,20.266,21.806,20.179,21.703,20.024 M22.382,19.666
			c-0.008-0.196-0.104-0.269-0.247-0.2c-0.153,0.073-0.241,0.203-0.267,0.369c-0.006,0.047,0.014,0.104,0.038,0.147
			c0.063,0.11,0.167,0.163,0.291,0.174c0.021,0.002,0.057-0.015,0.063-0.031C22.328,19.971,22.386,19.813,22.382,19.666"/>
		<path fill="#FFFFFF" d="M29.631,17.877c-0.088-0.027-0.166-0.018-0.243,0.012c-0.216,0.081-0.396,0.218-0.572,0.362
			c-0.36,0.295-0.65,0.654-0.924,1.029c-0.357,0.494-0.663,1.018-0.874,1.592c-0.105,0.287-0.167,0.583-0.183,0.889
			c-0.007,0.125,0.018,0.244,0.078,0.354c0.104,0.184,0.297,0.264,0.492,0.185c0.107-0.043,0.216-0.103,0.301-0.18
			c0.4-0.356,0.674-0.792,0.774-1.325c0.017-0.085,0.015-0.176,0.004-0.263c-0.015-0.114-0.093-0.158-0.196-0.106
			c-0.07,0.034-0.139,0.089-0.188,0.149c-0.134,0.165-0.22,0.354-0.255,0.563c-0.012,0.071-0.044,0.119-0.106,0.154
			c-0.17,0.096-0.314,0.223-0.445,0.366c-0.021,0.022-0.034,0.052-0.051,0.078c-0.01-0.005-0.018-0.01-0.026-0.015
			c0.004-0.048,0.007-0.097,0.012-0.145c0.052-0.449,0.2-0.854,0.543-1.169c0.116-0.107,0.249-0.188,0.403-0.23
			c0.271-0.075,0.44,0.039,0.473,0.323c0.024,0.207-0.017,0.407-0.084,0.601c-0.184,0.524-0.48,0.974-0.913,1.327
			c-0.157,0.128-0.329,0.233-0.529,0.283c-0.402,0.101-0.776-0.12-0.9-0.523c-0.101-0.331-0.067-0.658,0.021-0.985
			c0.17-0.627,0.475-1.188,0.84-1.721c0.355-0.52,0.771-0.984,1.279-1.36c0.283-0.21,0.588-0.377,0.934-0.457
			c0.162-0.037,0.324-0.036,0.468,0.071c0.06,0.044,0.122,0.015,0.181-0.011c0.155-0.068,0.316-0.111,0.485-0.123
			c0.245-0.016,0.479,0.033,0.699,0.14c0.284,0.138,0.562,0.283,0.843,0.427c0.079,0.041,0.076,0.054,0.016,0.116
			c-0.084,0.089-0.167,0.18-0.245,0.273c-0.047,0.055-0.092,0.062-0.153,0.026c-0.259-0.149-0.519-0.3-0.779-0.444
			c-0.18-0.099-0.367-0.179-0.571-0.211c-0.066-0.011-0.136-0.015-0.203-0.013c-0.091,0.002-0.104,0.024-0.11,0.116
			c-0.008,0.135-0.009,0.273-0.041,0.403c-0.102,0.414-0.301,0.777-0.62,1.064c-0.083,0.075-0.189,0.133-0.295,0.176
			c-0.177,0.072-0.322-0.02-0.355-0.208c-0.021-0.122,0.004-0.238,0.044-0.353c0.174-0.492,0.494-0.871,0.908-1.178
			c0.018-0.014,0.036-0.027,0.054-0.042C29.62,17.896,29.622,17.891,29.631,17.877 M29.771,18.032
			c-0.008-0.004-0.016-0.007-0.023-0.011c-0.032,0.02-0.065,0.038-0.097,0.06c-0.396,0.277-0.673,0.647-0.851,1.094
			c-0.025,0.065-0.039,0.141-0.04,0.211c-0.003,0.122,0.093,0.181,0.204,0.128c0.055-0.025,0.105-0.062,0.152-0.101
			c0.37-0.317,0.586-0.719,0.645-1.202C29.769,18.151,29.768,18.092,29.771,18.032"/>
		<path fill="#FFFFFF" d="M25.794,22.895c-0.043-0.014-0.089-0.021-0.128-0.042c-0.278-0.143-0.573-0.228-0.887-0.234
			c-0.118-0.002-0.239,0.013-0.356,0.036c-0.154,0.032-0.273,0.127-0.365,0.255c-0.059,0.08-0.084,0.08-0.143,0.003
			c-0.229-0.292-0.54-0.4-0.895-0.412c-0.426-0.014-0.83,0.092-1.234,0.211c-0.399,0.117-0.801,0.231-1.205,0.331
			c-0.305,0.074-0.613,0.067-0.905-0.067c-0.426-0.194-0.642-0.528-0.646-0.998c-0.008-0.948,0.276-1.797,0.854-2.547
			c0.322-0.416,0.682-0.796,1.123-1.088c0.147-0.098,0.304-0.181,0.464-0.256c0.194-0.091,0.408-0.102,0.619-0.099
			c0.176,0.002,0.325,0.166,0.339,0.352c0.017,0.231-0.079,0.422-0.224,0.594c-0.008,0.009-0.018,0.015-0.025,0.021
			c-0.076,0.056-0.176,0.07-0.23,0.03c-0.072-0.054-0.073-0.134-0.053-0.21c0.041-0.154,0.121-0.279,0.293-0.314
			c0.051-0.011,0.071-0.039,0.066-0.092c-0.008-0.09-0.068-0.144-0.166-0.142c-0.137,0.001-0.253,0.065-0.368,0.129
			c-0.219,0.12-0.4,0.287-0.568,0.47c-0.568,0.618-1.019,1.308-1.291,2.105c-0.11,0.324-0.182,0.656-0.148,1.001
			c0.011,0.104,0.032,0.208,0.067,0.305c0.096,0.264,0.305,0.4,0.565,0.472c0.267,0.072,0.531,0.043,0.792-0.029
			c0.459-0.127,0.916-0.258,1.372-0.391c0.46-0.134,0.923-0.252,1.405-0.263c0.496-0.012,0.95,0.123,1.354,0.414
			c0.156,0.112,0.307,0.233,0.457,0.354c0.029,0.022,0.052,0.054,0.078,0.081C25.802,22.881,25.798,22.888,25.794,22.895"/>
		<path fill="#FFFFFF" d="M34.378,17.44c-0.012,0.033-0.016,0.057-0.027,0.076c-0.328,0.615-0.804,1.06-1.482,1.265
			c-0.191,0.058-0.387,0.071-0.585,0.043c-0.064-0.009-0.071-0.023-0.032-0.077c0.084-0.115,0.169-0.229,0.258-0.341
			c0.018-0.023,0.057-0.044,0.085-0.043c0.423,0.012,0.794-0.14,1.139-0.367c0.229-0.15,0.44-0.325,0.614-0.54
			C34.351,17.451,34.358,17.45,34.378,17.44"/>
		<path fill="#FFFFFF" d="M27.013,19.044c-0.085,0.153-0.16,0.289-0.237,0.424c-0.007,0.012-0.023,0.023-0.036,0.024
			c-0.14,0.009-0.279,0.015-0.434,0.021c0.081-0.151,0.155-0.29,0.23-0.429c0.006-0.01,0.021-0.019,0.032-0.019
			C26.71,19.059,26.853,19.052,27.013,19.044"/>
	</g>
	<path fill="#FBC6BB" d="M23.761,39.591c-1.341,0-4.569-0.046-5.58-0.476c-0.227-0.095-0.395-0.295-0.447-0.534
		c-0.393-1.749-0.766-6.1-1.064-10.916c-0.018-0.027-0.048-0.043-0.062-0.072c-0.021-0.046-0.035-0.092-0.055-0.138l0.003-0.001
		c-0.412-0.964-0.345-2.004-0.163-2.998c0.019-0.101,0.038-0.201,0.059-0.301c0.052-0.25,0.105-0.498,0.161-0.739
		c0.143-0.62,0.288-1.255,0.305-1.784c0.003-1.112-0.288-1.685-0.56-1.743c-0.021-0.004-0.046-0.007-0.072-0.007
		c-0.42,0-1.125,0.585-1.606,1.668c-0.778,1.573-1.044,2.929-1.171,4.386c-0.053,0.602-0.084,1.218-0.114,1.877l-0.033,0.711
		c-0.044,0.514-0.005,1.069,0.038,1.657c0.105,1.508,0.224,3.196-1.035,4.273c-0.432,0.368-0.965,0.953-1.529,1.572
		c-0.953,1.046-1.92,2.095-2.846,2.683l6.608,7.627c0.21-0.278,0.471-0.676,0.707-1.038c0.898-1.372,1.915-2.928,3.056-3.369
		c0.656-0.225,1.654-0.261,2.71-0.3c0.973-0.037,2.047-0.078,2.537-0.259c0.759-0.279,1.896-0.835,2.86-1.833
		C25.552,39.569,24.641,39.591,23.761,39.591z"/>
	<path fill="#231F20" d="M37.629,25.236c-0.03-2.404-0.062-4.892-0.215-8.449c-0.038-0.854-0.071-1.687-0.104-2.491l-0.03-0.769
		c-0.11-2.814-0.204-4.872-0.318-6.396c-0.001-0.004,0.001-0.009,0.001-0.013S36.96,7.111,36.96,7.107
		c-0.203-2.68-0.474-3.678-1.028-4.108c-0.196-0.154-0.729-0.36-3.063-0.36c-2.075,0-4.78,0.161-6.684,0.296
		c-5.932,0.418-9.245,0.95-9.85,1.582c-0.223,0.233-0.674,0.72-0.139,13.842c-0.033,0.001-0.066,0.012-0.101,0.015
		c-0.107,0.01-0.215,0.022-0.321,0.049c-0.043,0.011-0.085,0.027-0.127,0.04c-0.113,0.035-0.226,0.077-0.337,0.13
		c-0.034,0.017-0.067,0.035-0.101,0.053c-0.119,0.063-0.236,0.136-0.352,0.219c-0.028,0.02-0.056,0.04-0.083,0.062
		c-0.118,0.09-0.232,0.19-0.345,0.3c-0.025,0.025-0.051,0.049-0.076,0.075c-0.11,0.113-0.215,0.236-0.317,0.367
		c-0.025,0.032-0.052,0.062-0.077,0.096c-0.101,0.136-0.196,0.282-0.289,0.436c-0.021,0.034-0.044,0.065-0.064,0.101
		c-0.109,0.19-0.214,0.391-0.309,0.604c-1.228,2.481-1.32,4.501-1.428,6.839l-0.032,0.68c0,0.003,0,0.006,0,0.009l-0.001,0.018
		c0,0.001,0,0.002,0,0.003c-0.048,0.604-0.004,1.236,0.04,1.85c0.088,1.242,0.171,2.416-0.505,2.995
		c-0.509,0.435-1.079,1.061-1.684,1.724c-0.857,0.94-1.83,2.006-2.591,2.457c-0.36,0.216-0.479,0.685-0.266,1.046
		c0.209,0.347,0.695,0.474,1.045,0.266c0.039-0.023,0.079-0.06,0.118-0.085c0.924-0.588,1.888-1.633,2.838-2.676
		c0.564-0.619,1.098-1.204,1.529-1.572c1.259-1.077,1.141-2.766,1.035-4.273c-0.021-0.294-0.042-0.58-0.052-0.856
		s-0.009-0.544,0.014-0.801l0.033-0.711c0.03-0.659,0.062-1.275,0.114-1.877c0.127-1.457,0.393-2.812,1.171-4.386
		c0.003-0.008,0.008-0.013,0.011-0.02l0,0c0.005-0.012,0.012-0.02,0.017-0.03c0.12-0.262,0.251-0.494,0.39-0.694l0,0
		c0.113-0.164,0.23-0.299,0.347-0.42v-0.001c0.035-0.036,0.068-0.074,0.104-0.106l0.001-0.001c0.061-0.056,0.118-0.091,0.177-0.134
		c0.08-0.061,0.159-0.126,0.234-0.163l0,0c0.046-0.023,0.083-0.023,0.126-0.038c0.068-0.022,0.143-0.061,0.201-0.061
		c0.026,0,0.051,0.003,0.072,0.007c0.271,0.059,0.562,0.631,0.56,1.743c-0.017,0.529-0.162,1.164-0.305,1.784
		c-0.056,0.241-0.109,0.489-0.161,0.739c-0.021,0.1-0.04,0.2-0.059,0.301c-0.182,0.994-0.249,2.034,0.163,2.998l-0.001,0.001
		c0.02,0.045,0.031,0.092,0.053,0.138c0.004,0.007,0.012,0.011,0.016,0.018c0.016,0.019,0.033,0.034,0.047,0.055
		c0.004,0.057,0.007,0.113,0.011,0.17c0.051,0.805,0.103,1.599,0.157,2.365c0.007,0.104,0.015,0.206,0.022,0.31
		c0.022,0.315,0.045,0.623,0.068,0.929c0.029,0.387,0.06,0.766,0.09,1.135c0,0.005,0.001,0.01,0.001,0.016
		c0.016,0.188,0.031,0.371,0.047,0.554c0.014,0.167,0.028,0.333,0.043,0.495c0.021,0.237,0.042,0.468,0.063,0.694
		c0.013,0.131,0.024,0.257,0.037,0.384c0.001,0.013,0.003,0.025,0.004,0.038c0.021,0.225,0.044,0.443,0.067,0.656
		c0.004,0.04,0.008,0.083,0.013,0.123c0.003,0.031,0.007,0.063,0.01,0.094c0.029,0.27,0.059,0.523,0.089,0.769
		c0.003,0.025,0.006,0.05,0.009,0.074c0.007,0.055,0.014,0.11,0.021,0.164c0.024,0.192,0.049,0.374,0.073,0.55
		c0.006,0.04,0.011,0.083,0.017,0.122c0.001,0.009,0.003,0.018,0.004,0.026c0.03,0.211,0.062,0.401,0.092,0.584
		c0.011,0.062,0.021,0.123,0.031,0.182c0.032,0.175,0.063,0.342,0.096,0.483c0.053,0.239,0.221,0.439,0.447,0.534
		c1.011,0.43,4.239,0.476,5.58,0.476c0.88,0,1.791-0.021,2.705-0.054c-0.002,0.002-0.004,0.003-0.006,0.005h0.001
		c-0.103,0.105-0.211,0.187-0.316,0.282c-0.143,0.13-0.283,0.271-0.429,0.383c-0.072,0.057-0.144,0.096-0.216,0.147
		c-0.183,0.131-0.365,0.264-0.543,0.37c-0.108,0.064-0.207,0.108-0.312,0.165c-0.138,0.073-0.279,0.156-0.409,0.217
		c-0.228,0.106-0.441,0.193-0.631,0.264c-0.49,0.181-1.564,0.222-2.537,0.259c-1.056,0.039-2.054,0.075-2.71,0.3
		c-1.141,0.441-2.157,1.997-3.056,3.369c-0.268,0.411-0.571,0.876-0.791,1.15c-0.128,0.16-0.186,0.359-0.162,0.562
		c0.022,0.202,0.122,0.384,0.281,0.511c0.134,0.107,0.303,0.167,0.476,0.167c0.233,0,0.451-0.105,0.596-0.287
		c0.253-0.315,0.53-0.74,0.876-1.269c0.656-1.002,1.647-2.518,2.301-2.771c0.416-0.143,1.389-0.178,2.248-0.21
		c1.173-0.044,2.281-0.085,3.005-0.35c1.853-0.683,3.354-1.862,4.34-3.356c3.805-0.23,7.351-0.733,8.714-1.496
		c0.522-0.293,0.82-0.66,0.884-1.091c0.01-0.058,0.012-0.113,0.008-0.172C37.708,31.623,37.67,28.521,37.629,25.236z M17.545,5.543
		c1.657-0.609,11.096-1.414,15.502-1.414c1.172,0,1.708,0.057,1.952,0.11c0.158,0.316,0.282,1.141,0.383,2.257
		C34.24,6.6,33.091,6.707,31.917,6.819c-4.766,0.459-9.683,0.92-14.452,0.961C17.472,6.731,17.496,5.949,17.545,5.543z
		 M23.185,38.115c-1.884,0-3.278-0.1-4.049-0.289c-0.123-0.664-0.243-1.576-0.36-2.659c2.48-0.057,4.859-0.152,7.146-0.291
		c-0.124,0.139-0.229,0.284-0.301,0.43c-0.397,0.798-0.287,1.987,0.884,2.725C25.38,38.084,24.256,38.115,23.185,38.115z
		 M27.835,36.771c-0.162,0.098-0.304,0.101-0.51-0.022c-0.406-0.251-0.442-0.56-0.341-0.764c0.046-0.091,0.16-0.243,0.418-0.243
		c0.099,0,0.211,0.024,0.332,0.07c0.388,0.153,0.403,0.344,0.409,0.405C28.16,36.414,28.026,36.652,27.835,36.771z M18.625,33.646
		c-0.241-2.622-0.46-5.942-0.642-9.38c0.038-0.176,0.078-0.353,0.118-0.528c0.03-0.135,0.057-0.272,0.087-0.409
		c0.046-0.209,0.095-0.418,0.133-0.63c0.001-0.003,0.001-0.006,0.001-0.009c0.062-0.345,0.107-0.69,0.118-1.033
		c0.002-0.72-0.096-1.269-0.244-1.708c-0.123-0.369-0.28-0.659-0.456-0.875c-0.151-3.707-0.25-7.213-0.271-9.77
		c4.835-0.04,9.791-0.506,14.595-0.968l0.12-0.012c1.122-0.107,2.221-0.21,3.312-0.31c0.107,1.677,0.187,3.678,0.261,5.572
		l0.004,0.088c0.04,1.015,0.082,2.079,0.129,3.178c0.152,3.502,0.184,5.991,0.214,8.402c0.028,2.222,0.057,4.374,0.185,7.086
		C30.949,33.071,25.16,33.5,18.625,33.646z M28.859,37.881c0.536-0.443,0.859-1.121,0.802-1.792
		c-0.047-0.576-0.352-1.07-0.851-1.416c2.625-0.207,5.136-0.475,7.558-0.802c0.048,0.845,0.103,1.73,0.173,2.706
		C35.947,37.065,32.638,37.588,28.859,37.881z"/>
	<g>
		<path fill="#FFFFFF" d="M36.541,36.577c-0.07-0.976-0.125-1.861-0.173-2.706c-2.422,0.327-4.933,0.595-7.558,0.802
			c0.499,0.346,0.804,0.84,0.851,1.416c0.058,0.671-0.266,1.349-0.802,1.792C32.638,37.588,35.947,37.065,36.541,36.577z"/>
		<path fill="#FFFFFF" d="M25.62,35.306c0.072-0.146,0.177-0.291,0.301-0.43c-2.286,0.139-4.665,0.234-7.146,0.291
			c0.117,1.083,0.237,1.995,0.36,2.659c0.771,0.189,2.165,0.289,4.049,0.289c1.071,0,2.195-0.031,3.319-0.085
			C25.333,37.293,25.223,36.104,25.62,35.306z"/>
		<path fill="#FFFFFF" d="M17.465,7.78c4.77-0.041,9.687-0.502,14.452-0.961c1.174-0.112,2.323-0.22,3.465-0.323
			c-0.101-1.116-0.225-1.94-0.383-2.257c-0.244-0.054-0.78-0.11-1.952-0.11c-4.406,0-13.845,0.805-15.502,1.414
			C17.496,5.949,17.472,6.731,17.465,7.78z"/>
		<path fill="#FFFFFF" d="M27.402,35.741c-0.258,0-0.372,0.152-0.418,0.243c-0.102,0.204-0.065,0.513,0.341,0.764
			c0.206,0.123,0.348,0.12,0.51,0.022c0.191-0.118,0.325-0.356,0.309-0.554c-0.006-0.062-0.021-0.252-0.409-0.405
			C27.613,35.766,27.501,35.741,27.402,35.741z"/>
	</g>
	<path fill="#83B454" d="M41.274,29.453c0,3.57-2.894,6.465-6.465,6.465c-3.57,0-6.465-2.895-6.465-6.465s2.895-6.465,6.465-6.465
		C38.381,22.988,41.274,25.883,41.274,29.453"/>
	<path fill="#FFFFFF" d="M38.603,26.491c-0.473-0.25-0.915-0.076-1.221,0.32c-0.641,0.828-1.431,1.753-2.188,2.567
		c-0.391,0.421-0.791,0.833-1.2,1.235c-0.151,0.149-0.305,0.296-0.459,0.442c-0.022-0.089-0.052-0.178-0.071-0.268
		c-0.021-0.102-0.042-0.203-0.059-0.305c-0.012-0.067-0.022-0.136-0.032-0.204c0.011,0.066,0.009,0.043-0.005-0.07
		c-0.021-0.24-0.035-0.479-0.037-0.721c-0.004-0.468-0.408-0.915-0.894-0.894c-0.479,0.021-0.896,0.393-0.893,0.894
		c0.009,1.006,0.186,2.021,0.556,2.958c0.125,0.316,0.255,0.61,0.558,0.795c0.343,0.209,0.792,0.191,1.129-0.019
		c0.433-0.27,0.806-0.702,1.171-1.055c1.436-1.384,2.748-2.879,3.965-4.456C39.21,27.342,38.993,26.697,38.603,26.491z"/>
</g>
</svg>
