<?xml version="1.0" encoding="utf-8"?>
<!-- Generator: Adobe Illustrator 16.0.0, SVG Export Plug-In . SVG Version: 6.00 Build 0)  -->
<!DOCTYPE svg PUBLIC "-//W3C//DTD SVG 1.1//EN" "http://www.w3.org/Graphics/SVG/1.1/DTD/svg11.dtd">
<svg version="1.1" id="Layer_1" xmlns="http://www.w3.org/2000/svg" xmlns:xlink="http://www.w3.org/1999/xlink" x="0px" y="0px"
	 width="48px" height="48px" viewBox="0 0 48 48" enable-background="new 0 0 48 48" xml:space="preserve">
<g>
	<path fill="#FFFFFF" d="M34.123,17.702c-0.007-0.073-0.026-0.135-0.039-0.205c-0.005-0.089-0.02-0.181-0.053-0.278
		c-0.168-0.495-0.443-1.184-0.748-2.086c-0.311-0.901-0.675-1.997-1.091-3.264c-0.409-1.266-0.873-2.7-1.381-4.271L30.757,7.43
		c-0.033-0.096-0.073-0.189-0.123-0.278c-0.098-0.179-0.228-0.34-0.382-0.475c-0.308-0.269-0.719-0.425-1.135-0.425
		c-0.433,0.006-0.875,0.012-1.325,0.019c-0.895,0.011-1.824,0.021-2.782,0.033c-1.916,0.015-3.949,0.031-6.069,0.048
		c-2.12,0.014-4.33,0.028-6.598,0.043c-1.133,0.004-2.282,0.007-3.441,0.011c-0.58,0.001-1.163,0.003-1.748,0.005L6.714,6.412
		l-0.221,0c-0.023,0-0.109,0.002-0.167,0.006C6.262,6.426,6.198,6.434,6.135,6.448C5.63,6.553,5.191,6.923,5.006,7.408
		c-0.686,2.272-1.38,4.576-2.074,6.877l-0.52,1.714l-0.261,0.856l-0.129,0.428c-0.04,0.105-0.113,0.537-0.085,0.646
		c0.021,1.368,0.629,2.708,1.621,3.633c0.083,0.079,0.184,0.136,0.272,0.209c0.018,0.353,0.08,0.848,0.109,1.487
		c0.036,0.645,0.067,1.426,0.099,2.328c0.024,0.9,0.052,1.92,0.082,3.038c0.022,1.118,0.047,2.336,0.072,3.633
		c0.015,1.297,0.031,2.674,0.048,4.108c0.002,0.18,0.005,0.36,0.007,0.541l0.003,0.276c0.003,0.163,0.029,0.328,0.081,0.486
		c0.2,0.636,0.83,1.106,1.505,1.107c0.75-0.007,1.512-0.014,2.284-0.021c1.534-0.006,3.11-0.012,4.706-0.019
		c0.355-0.001,0.717-0.002,1.074-0.003c0.356,0.001,0.717,0.002,1.072,0.003c1.591,0.006,3.169,0.013,4.705,0.019
		c1.535,0.015,3.033,0.029,4.474,0.043l3.01,0.035c0.117,0.001,0.226-0.029,0.325-0.076c0.673,0.007,1.341,0.013,1.998,0.019
		l0.14,0.001l0.07,0l0.119-0.004c0.166-0.012,0.333-0.046,0.488-0.109c0.312-0.124,0.58-0.344,0.759-0.624
		c0.091-0.139,0.158-0.293,0.201-0.454c0.023-0.08,0.036-0.162,0.047-0.244c0.007-0.076,0.011-0.183,0.01-0.212
		c0.002-0.182,0.004-0.363,0.006-0.544c0.017-1.443,0.033-2.829,0.048-4.135c0.025-1.308,0.049-2.539,0.072-3.67
		c0.031-1.131,0.058-2.166,0.083-3.084c0.031-0.916,0.062-1.716,0.098-2.379c0.02-0.45,0.088-0.833,0.113-1.15
		c0.776-0.552,1.346-1.254,1.701-1.934c0.285-0.531,0.475-1.05,0.58-1.522c0.025-0.119,0.048-0.233,0.071-0.343
		c0.011-0.112,0.021-0.22,0.03-0.323c0.003-0.051,0.007-0.103,0.01-0.152l0.003-0.074C34.133,17.799,34.127,17.74,34.123,17.702z"/>
	<path fill="#FCB91F" d="M23.114,27.064H12.449c-0.972,0-1.761-0.788-1.761-1.761s0.789-1.761,1.761-1.761h10.665
		c0.973,0,1.761,0.788,1.761,1.761S24.087,27.064,23.114,27.064"/>
	<path fill="#231F20" d="M34.123,17.702c-0.007-0.073-0.026-0.135-0.039-0.205c-0.005-0.089-0.02-0.181-0.053-0.278
		c-0.168-0.495-0.443-1.184-0.748-2.086c-0.311-0.901-0.675-1.997-1.091-3.264c-0.409-1.266-0.873-2.7-1.381-4.271L30.757,7.43
		c-0.033-0.096-0.073-0.189-0.123-0.278c-0.098-0.179-0.228-0.34-0.382-0.475c-0.308-0.269-0.719-0.425-1.135-0.425
		c-0.433,0.006-0.875,0.012-1.325,0.019c-0.895,0.011-1.824,0.021-2.782,0.033c-1.916,0.015-3.949,0.031-6.069,0.048
		c-2.12,0.014-4.33,0.028-6.598,0.043c-1.133,0.004-2.282,0.007-3.441,0.011c-0.58,0.001-1.163,0.003-1.748,0.005L6.714,6.412
		l-0.221,0c-0.023,0-0.109,0.002-0.167,0.006C6.262,6.426,6.198,6.434,6.135,6.448C5.63,6.553,5.191,6.923,5.006,7.408
		c-0.686,2.272-1.38,4.576-2.074,6.877l-0.52,1.714l-0.261,0.856l-0.129,0.428c-0.04,0.105-0.113,0.537-0.085,0.646
		c0.021,1.368,0.629,2.708,1.621,3.633c0.083,0.079,0.184,0.136,0.272,0.209c0.018,0.353,0.08,0.848,0.109,1.487
		c0.036,0.645,0.067,1.426,0.099,2.328c0.024,0.9,0.052,1.92,0.082,3.038c0.022,1.118,0.047,2.336,0.072,3.633
		c0.015,1.297,0.031,2.674,0.048,4.108c0.002,0.18,0.005,0.36,0.007,0.541l0.003,0.276c0.003,0.163,0.029,0.328,0.081,0.486
		c0.2,0.636,0.83,1.106,1.505,1.107c0.75-0.007,1.512-0.014,2.284-0.021c1.534-0.006,3.11-0.012,4.706-0.019
		c0.355-0.001,0.717-0.002,1.074-0.003c0.356,0.001,0.717,0.002,1.072,0.003c1.591,0.006,3.169,0.013,4.705,0.019
		c1.535,0.015,3.033,0.029,4.474,0.043l3.01,0.035c0.117,0.001,0.226-0.029,0.325-0.076c0.673,0.007,1.341,0.013,1.998,0.019
		l0.14,0.001l0.07,0l0.119-0.004c0.166-0.012,0.333-0.046,0.488-0.109c0.312-0.124,0.58-0.344,0.759-0.624
		c0.091-0.139,0.158-0.293,0.201-0.454c0.023-0.08,0.036-0.162,0.047-0.244c0.007-0.076,0.011-0.183,0.01-0.212
		c0.002-0.182,0.004-0.363,0.006-0.544c0.017-1.443,0.033-2.829,0.048-4.135c0.025-1.308,0.049-2.539,0.072-3.67
		c0.031-1.131,0.058-2.166,0.083-3.084c0.031-0.916,0.062-1.716,0.098-2.379c0.02-0.45,0.088-0.833,0.113-1.15
		c0.776-0.552,1.346-1.254,1.701-1.934c0.285-0.531,0.475-1.05,0.58-1.522c0.025-0.119,0.048-0.233,0.071-0.343
		c0.011-0.112,0.021-0.22,0.03-0.323c0.003-0.051,0.007-0.103,0.01-0.152l0.003-0.074C34.133,17.799,34.127,17.74,34.123,17.702z
		 M22.158,7.875c0.044,0.137,0.09,0.283,0.139,0.46c0.057,0.214,0.111,0.457,0.173,0.721c0.061,0.265,0.119,0.553,0.177,0.861
		c0.059,0.307,0.119,0.633,0.179,0.974c0.06,0.341,0.115,0.696,0.177,1.059c0.058,0.364,0.113,0.738,0.171,1.115
		c0.054,0.379,0.108,0.761,0.16,1.145c0.051,0.383,0.098,0.767,0.146,1.146c0.044,0.379,0.088,0.754,0.127,1.119
		c0.036,0.366,0.075,0.722,0.106,1.063c0.032,0.343,0.059,0.672,0.083,0.982c0.024,0.31,0.043,0.602,0.054,0.87
		c0.009,0.269,0.02,0.514,0.021,0.731c0,0.109-0.005,0.188-0.008,0.283c-0.703,0.693-1.688,1.1-2.69,1.054
		c-0.884-0.031-1.734-0.42-2.377-1.037c-0.027-0.134-0.054-0.274-0.078-0.446c-0.029-0.216-0.059-0.461-0.083-0.73
		c-0.027-0.269-0.053-0.56-0.072-0.872c-0.016-0.312-0.034-0.643-0.048-0.987c-0.018-0.345-0.027-0.705-0.043-1.073
		c-0.005-0.369-0.016-0.747-0.019-1.13c-0.014-0.383-0.014-0.772-0.014-1.16c0-0.388,0-0.776,0.014-1.161
		c0.003-0.384,0.014-0.764,0.019-1.134c0.016-0.369,0.025-0.73,0.043-1.078c0.014-0.346,0.032-0.679,0.048-0.993
		c0.02-0.314,0.045-0.609,0.072-0.881c0.024-0.271,0.054-0.521,0.083-0.741c0.01-0.073,0.022-0.122,0.032-0.188
		c0.063,0,0.129,0,0.192,0.001C20.039,7.857,21.111,7.866,22.158,7.875z M11.7,20.562c-0.008-0.136-0.014-0.275-0.014-0.448
		c0.002-0.22,0.008-0.47,0.022-0.742c0.011-0.273,0.026-0.569,0.052-0.883c0.029-0.314,0.057-0.647,0.093-0.994
		c0.031-0.348,0.072-0.708,0.109-1.08c0.047-0.369,0.09-0.749,0.141-1.133c0.041-0.385,0.096-0.773,0.151-1.162
		c0.055-0.388,0.11-0.776,0.178-1.159c0.059-0.383,0.122-0.761,0.18-1.13c0.068-0.368,0.129-0.728,0.195-1.071
		c0.062-0.345,0.129-0.675,0.188-0.986c0.063-0.311,0.131-0.604,0.196-0.871c0.062-0.268,0.126-0.512,0.187-0.728
		c0.039-0.138,0.076-0.242,0.114-0.355c1.121,0.006,2.223,0.012,3.308,0.018c0.01,0.069,0.021,0.122,0.031,0.198
		c0.027,0.22,0.05,0.469,0.076,0.741c0.026,0.272,0.045,0.567,0.062,0.881c0.017,0.314,0.035,0.647,0.048,0.993
		c0.014,0.347,0.022,0.708,0.034,1.078c0.011,0.37,0.016,0.75,0.022,1.134c0.004,0.384,0.007,0.772,0.007,1.161
		c0,0.388-0.003,0.776-0.007,1.16c-0.006,0.383-0.012,0.762-0.022,1.13c-0.012,0.369-0.021,0.729-0.034,1.073
		c-0.014,0.344-0.031,0.675-0.048,0.987c-0.016,0.312-0.036,0.604-0.062,0.872c-0.026,0.269-0.048,0.514-0.076,0.73
		c-0.024,0.18-0.051,0.328-0.076,0.466c-0.292,0.287-0.612,0.544-0.981,0.721c-0.758,0.365-1.648,0.455-2.47,0.255
		C12.711,21.275,12.157,20.973,11.7,20.562z M3.296,17.897c-0.001-0.029-0.005-0.067-0.004-0.089
		c0.005-0.008,0.009-0.015,0.011-0.022c0.005-0.017-0.014-0.014,0.02-0.108l0.13-0.428l0.259-0.856l0.519-1.714
		c0.688-2.265,1.379-4.532,2.06-6.77c0.021-0.056,0.076-0.1,0.134-0.11l0.022-0.003l0.048,0l0.221,0l0.439,0.001
		C7.738,7.799,8.321,7.8,8.901,7.802c0.88,0.003,1.746,0.006,2.611,0.009c0,0.031,0.002,0.051,0.001,0.083
		c-0.004,0.225-0.018,0.476-0.03,0.751c-0.013,0.275-0.036,0.574-0.064,0.891c-0.027,0.316-0.058,0.652-0.093,1.001
		c-0.035,0.348-0.078,0.71-0.118,1.082c-0.043,0.371-0.091,0.752-0.139,1.137c-0.051,0.385-0.103,0.773-0.158,1.162
		s-0.114,0.776-0.171,1.159c-0.061,0.382-0.119,0.76-0.182,1.127c-0.064,0.367-0.124,0.725-0.187,1.068
		c-0.062,0.342-0.126,0.67-0.188,0.98c-0.061,0.309-0.121,0.598-0.185,0.863s-0.121,0.507-0.178,0.719
		c-0.06,0.212-0.118,0.395-0.169,0.546c-0.022,0.062-0.049,0.116-0.075,0.166c-0.64,0.595-1.487,0.98-2.383,1.009
		c-0.441,0.017-0.882-0.057-1.303-0.194c-0.151-0.127-0.357-0.216-0.599-0.258c-0.284-0.151-0.557-0.325-0.795-0.547
		C3.764,19.879,3.314,18.903,3.296,17.897z M8.835,28.534c0.003,0,0.002,0,0.006,0l0,0C8.839,28.534,8.836,28.534,8.835,28.534z
		 M9.113,35c0.008-1.591,0.015-3.163,0.022-4.692c0.003-0.383,0.006-0.763,0.009-1.141c0.001-0.171,0.002-0.342,0.003-0.512
		c0.103-0.076,0.363-0.181,0.619-0.214c0.14-0.024,0.285-0.036,0.432-0.037c0.174,0.001,0.348,0.001,0.52,0.002
		c1.432,0.018,2.805,0.033,4.098,0.049c1.293,0.022,2.508,0.042,3.622,0.062c1.115,0.028,2.132,0.053,3.03,0.075
		c0.899,0.036,1.68,0.066,2.322,0.092c0.642,0.031,1.146,0.095,1.493,0.1c0.14-0.001,0.301-0.009,0.474,0.002
		c0.143,0.005,0.298,0.039,0.403,0.075c0.001,0.026,0.002,0.052,0.003,0.079c0.014,0.396,0.029,0.824,0.045,1.281
		c0.023,0.915,0.048,1.947,0.076,3.075c0.019,1.128,0.04,2.355,0.062,3.659l0.004,0.323l-2.2,0.026
		c-1.44,0.011-2.938,0.023-4.474,0.035c-1.536,0.007-3.113,0.015-4.705,0.022c-0.355,0-0.716,0.001-1.072,0.001
		c-0.357,0-0.719-0.001-1.074-0.001c-1.256-0.006-2.494-0.012-3.716-0.018L9.113,35z M29.832,37.189
		c-0.002,0.006,0,0.014-0.003,0.02c-0.003,0.013-0.006,0.026-0.014,0.039c-0.014,0.025-0.038,0.046-0.063,0.058
		c-0.013,0.007-0.026,0.008-0.042,0.011l-0.018,0.002l-0.07,0.001l-0.14,0.001c-0.509,0.004-1.03,0.007-1.548,0.011l0.004-0.378
		c0.026-1.304,0.05-2.531,0.073-3.659c0.03-1.128,0.058-2.16,0.082-3.075c0.017-0.457,0.032-0.885,0.047-1.281
		c0.004-0.099,0.008-0.196,0.013-0.292l0.003-0.071l0.001-0.035l-0.003-0.1c-0.007-0.157-0.041-0.298-0.088-0.43
		c-0.209-0.517-0.51-0.721-0.736-0.887c-0.471-0.302-0.844-0.428-1.183-0.527c-0.335-0.092-0.627-0.126-0.864-0.098
		c-0.352,0.017-0.852,0.081-1.493,0.11c-0.643,0.036-1.423,0.067-2.322,0.098c-0.898,0.024-1.915,0.052-3.03,0.083
		c-1.114,0.022-2.329,0.046-3.622,0.072c-1.293,0.015-2.666,0.031-4.098,0.048c-0.185,0.003-0.371,0.005-0.558,0.009
		c-0.214,0.006-0.429,0.028-0.646,0.068c-0.436,0.091-0.88,0.197-1.357,0.595c-0.119,0.115-0.24,0.237-0.335,0.438
		c-0.047,0.093-0.085,0.21-0.104,0.326c-0.009,0.06-0.014,0.122-0.017,0.183v0.073c0.002,0.188,0.003,0.375,0.005,0.564
		c0.004,0.377,0.008,0.758,0.012,1.141C7.724,31.837,7.729,33.409,7.736,35l0.007,2.334c-0.633-0.005-1.264-0.01-1.881-0.015
		c-0.06-0.002-0.114-0.05-0.128-0.103c-0.002-0.014-0.004-0.026-0.004-0.042l0.002-0.269c0.002-0.181,0.003-0.361,0.005-0.541
		c0.017-1.435,0.033-2.812,0.049-4.108c0.021-1.297,0.042-2.515,0.062-3.633c0.027-1.118,0.053-2.138,0.075-3.038
		c0.035-0.902,0.066-1.684,0.091-2.328c0.007-0.151,0.017-0.293,0.026-0.429c0.398,0.083,0.801,0.135,1.206,0.121
		c1.266-0.033,2.479-0.582,3.372-1.438c0.645,0.631,1.452,1.099,2.333,1.322c1.143,0.293,2.384,0.183,3.46-0.317
		c0.5-0.231,0.957-0.549,1.361-0.924c0.889,0.851,2.08,1.392,3.321,1.456c1.382,0.099,2.783-0.412,3.824-1.335
		c0.065,0.062,0.126,0.127,0.194,0.186c0.757,0.645,1.661,1.051,2.562,1.202c0.64,0.109,1.271,0.097,1.865-0.008
		c0.005,0.076,0.01,0.146,0.014,0.227c0.025,0.663,0.056,1.463,0.091,2.379c0.022,0.918,0.048,1.953,0.076,3.084
		c0.019,1.131,0.04,2.362,0.062,3.67c0.015,1.306,0.031,2.691,0.048,4.135c0.002,0.181,0.003,0.362,0.005,0.544
		C29.833,37.194,29.831,37.176,29.832,37.189z M31.824,18.364c-0.024,0.285-0.088,0.611-0.246,0.953
		c-0.296,0.68-0.938,1.445-1.944,1.82c-0.986,0.381-2.361,0.292-3.42-0.565c-0.137-0.11-0.25-0.248-0.37-0.377
		c-0.036-0.108-0.071-0.207-0.108-0.338c-0.057-0.209-0.119-0.447-0.177-0.709c-0.063-0.261-0.127-0.546-0.187-0.851
		c-0.057-0.306-0.119-0.629-0.178-0.968c-0.062-0.338-0.12-0.691-0.185-1.053c-0.053-0.362-0.113-0.735-0.167-1.113
		c-0.064-0.377-0.115-0.76-0.166-1.143c-0.052-0.383-0.103-0.767-0.14-1.147c-0.047-0.379-0.087-0.756-0.13-1.122
		c-0.034-0.368-0.071-0.725-0.1-1.07c-0.032-0.344-0.057-0.675-0.083-0.988c-0.023-0.312-0.036-0.607-0.045-0.88
		c-0.012-0.271-0.016-0.521-0.016-0.742c0-0.07,0.005-0.118,0.007-0.182c0.276,0.002,0.567,0.005,0.839,0.007
		c0.958,0.009,1.887,0.019,2.782,0.028c0.446,0.005,0.883,0.011,1.312,0.016c0.009,0.004,0.014,0.009,0.018,0.016
		c0.002,0.003,0.002,0.007,0.002,0.01l-0.001,0.004l0.037,0.128c0.452,1.588,0.865,3.037,1.229,4.317
		c0.353,1.285,0.658,2.399,0.91,3.317c0.24,0.897,0.394,1.614,0.535,2.107l0.001,0.005l0.004,0.015v0.011v0.011
		c-0.013,0.004-0.019,0.005,0,0v0.081c0.001,0.063,0.002,0.128,0.003,0.195C31.836,18.224,31.83,18.293,31.824,18.364z"/>
	<path opacity="0.6" fill="#FCB91F" d="M6.707,21.129c-0.106,0-0.214-0.009-0.321-0.029c-0.957-0.176-1.589-1.094-1.413-2.051
		L6.674,9.82C6.85,8.863,7.769,8.23,8.724,8.408c0.957,0.176,1.588,1.094,1.413,2.05l-1.701,9.229
		C8.28,20.535,7.539,21.129,6.707,21.129"/>
	<path opacity="0.6" fill="#FCB91F" d="M14.32,21.129c-0.064,0-0.128-0.003-0.193-0.01c-0.967-0.105-1.665-0.975-1.56-1.941
		l1.005-9.229c0.105-0.966,0.975-1.664,1.941-1.56c0.966,0.105,1.665,0.975,1.56,1.941l-1.005,9.229
		C15.97,20.461,15.207,21.129,14.32,21.129"/>
	<path opacity="0.6" fill="#FCB91F" d="M21.099,20.791c-0.902,0-1.67-0.689-1.752-1.605l-0.791-8.891
		c-0.087-0.968,0.629-1.823,1.598-1.91c0.968-0.083,1.823,0.629,1.91,1.598l0.792,8.891c0.086,0.969-0.629,1.824-1.598,1.91
		C21.204,20.789,21.151,20.791,21.099,20.791"/>
	<path opacity="0.6" fill="#FCB91F" d="M28.755,20.791c-0.806,0-1.533-0.557-1.716-1.376l-1.993-8.891
		c-0.212-0.949,0.384-1.891,1.333-2.104c0.949-0.213,1.891,0.384,2.104,1.333l1.993,8.891c0.213,0.949-0.384,1.891-1.333,2.104
		C29.012,20.777,28.883,20.791,28.755,20.791"/>
	<path fill="#FFFFFF" d="M44.928,17.478c0,1.319-3.323,2.387-7.422,2.387c-4.1,0-7.424-1.068-7.424-2.387
		c0-1.318,3.324-2.386,7.424-2.386C41.604,15.092,44.928,16.16,44.928,17.478"/>
	<path fill="#FFE4BA" d="M44.906,19.58l0.021-0.212H44.84c-0.525-1.153-3.604-2.04-7.334-2.04c-3.732,0-6.812,0.887-7.336,2.04
		h-0.087l0.021,0.212c-0.008,0.045-0.021,0.09-0.021,0.136c0,0.102,0.026,0.202,0.065,0.301l1.854,18.417
		c0,1.726,2.464,3.125,5.504,3.125c3.039,0,5.502-1.399,5.502-3.125l1.854-18.417c0.039-0.099,0.065-0.199,0.065-0.301
		C44.928,19.67,44.915,19.625,44.906,19.58z"/>
	<path fill="#231F20" d="M46.069,17.478c-0.004-0.276-0.088-0.588-0.243-0.858c-0.154-0.271-0.361-0.483-0.581-0.67
		c-0.443-0.374-0.954-0.611-1.516-0.814c-0.563-0.204-1.185-0.362-1.862-0.486c-0.678-0.121-1.409-0.214-2.186-0.271
		c-0.775-0.056-1.596-0.074-2.449-0.051c-0.853,0.024-1.741,0.086-2.647,0.218c-0.906,0.132-1.835,0.317-2.767,0.644
		c-0.467,0.167-0.937,0.365-1.402,0.673c-0.231,0.157-0.468,0.343-0.68,0.621c-0.131,0.168-0.248,0.401-0.309,0.66
		c-0.291,0.122-0.503,0.28-0.483,0.439c0.04,0.378,0.149,0.859,0.239,1.497c0.084,0.638,0.187,1.408,0.304,2.288
		c0.105,0.884,0.223,1.881,0.352,2.97c0.12,1.09,0.251,2.277,0.39,3.538c0.132,1.26,0.272,2.596,0.418,3.988
		c0.141,1.393,0.287,2.843,0.437,4.328l0.2,2.042l-0.003-0.067c0.003,0.567,0.188,1.118,0.467,1.564
		c0.281,0.448,0.638,0.819,1.026,1.111c1.45,1.068,3.187,1.428,4.866,1.413c0.843-0.012,1.689-0.132,2.509-0.379
		c0.818-0.246,1.616-0.625,2.309-1.217c0.332-0.297,0.653-0.632,0.883-1.062c0.232-0.423,0.38-0.92,0.387-1.431l-0.003,0.067
		l0.223-2.275c0.149-1.482,0.295-2.924,0.434-4.309c0.146-1.384,0.285-2.711,0.417-3.962c0.138-1.25,0.268-2.424,0.387-3.501
		c0.128-1.077,0.244-2.06,0.347-2.927c0.116-0.867,0.216-1.619,0.299-2.239c0.089-0.619,0.197-1.102,0.233-1.437
		c0.001-0.01-0.007-0.017-0.006-0.026C46.06,17.532,46.069,17.502,46.069,17.478z M32.272,16.491c0.8-0.272,1.66-0.433,2.5-0.539
		c0.843-0.096,1.677-0.136,2.478-0.128c0.8,0.004,1.567,0.057,2.281,0.14c0.715,0.087,1.378,0.216,1.966,0.372
		c0.587,0.155,1.105,0.339,1.512,0.541c0.378,0.185,0.657,0.392,0.781,0.545c0,0.013,0,0.032,0,0.045
		c0,0.004-0.004,0.007-0.004,0.01c0-0.003,0.004-0.005,0.004-0.008c0,0.003,0,0.008,0,0.012c-0.001-0.001-0.003-0.002-0.004-0.004
		c-0.017,0.023-0.015,0.05-0.006,0.072c0.003-0.003,0.006-0.007,0.009-0.01c0,0.007,0,0.015,0,0.022
		c-0.003-0.005-0.006-0.006-0.009-0.012c-0.122,0.146-0.377,0.334-0.719,0.508c-0.396,0.199-0.9,0.39-1.481,0.543
		c-0.579,0.16-1.233,0.289-1.941,0.381c-0.708,0.085-1.47,0.143-2.266,0.151c-0.796,0.014-1.626-0.024-2.468-0.113
		c-0.838-0.1-1.698-0.251-2.505-0.512c-0.403-0.126-0.796-0.284-1.123-0.481c-0.007-0.004-0.012-0.009-0.019-0.013
		c0.008-0.252,0.007-0.469-0.039-0.643c-0.03-0.115-0.104-0.199-0.197-0.265c0.048-0.039,0.097-0.078,0.153-0.115
		C31.486,16.789,31.873,16.623,32.272,16.491z M43.466,24.026c-0.078,1.082-0.163,2.259-0.254,3.514
		c-0.101,1.253-0.208,2.584-0.32,3.971c-0.114,1.387-0.234,2.832-0.357,4.316l-0.202,2.277c-0.002,0.02-0.003,0.041-0.003,0.061
		v0.002c-0.004,0.513-0.292,1.039-0.776,1.454c-0.487,0.428-1.122,0.751-1.803,0.955c-0.68,0.208-1.403,0.313-2.129,0.323
		c-1.442,0.025-2.947-0.334-4.005-1.146c-0.565-0.438-0.938-1.016-0.935-1.586c0-0.018-0.001-0.037-0.002-0.055l-0.001-0.007
		l-0.181-2.044c-0.123-1.488-0.244-2.939-0.359-4.335c-0.112-1.396-0.22-2.734-0.322-3.997c-0.092-1.265-0.178-2.455-0.257-3.55
		c-0.071-1.095-0.136-2.096-0.194-2.984c-0.035-0.609-0.063-1.143-0.086-1.64c0.23,0.1,0.459,0.185,0.689,0.262
		c0.932,0.312,1.858,0.487,2.761,0.612c0.904,0.124,1.788,0.184,2.635,0.201c0.848,0.019,1.664-0.005,2.433-0.062
		c0.77-0.062,1.494-0.156,2.164-0.282c0.642-0.118,1.229-0.277,1.763-0.469c-0.019,0.392-0.042,0.812-0.068,1.27
		C43.6,21.957,43.536,22.944,43.466,24.026z"/>
	<path fill="#FBC6BB" d="M17.675,33.834c4.634,0.408,8.48-0.075,11.165-0.885c1.391-0.952,3.417-6.477,5.067-5.273
		c1.125,0.819-0.273,4.763-0.968,6.124c3.479,0.318,9.211-1.905,9.688-0.309c0.393,1.307-1.841,1.691-3.877,2.252
		c1.741-0.302,5.748-1.921,5.995-0.263c0.183,1.22-3.756,1.965-5.545,2.48c1.449-0.408,5.527-1.516,5.728-0.265
		c0.191,1.19-4.338,1.88-5.24,2.126c1.433-0.218,4.419-1.247,4.446,0.081c0.022,1.047-4.63,2.611-7.517,2.846
		c-4.171,0.338-6.213,0.225-9.616-1.101c-1.035-0.404-4.982-0.096-8.689-0.45"/>
	<path fill="#231F20" d="M45.604,37.459c-0.022-0.096-0.06-0.188-0.112-0.277c-0.096-0.181-0.24-0.319-0.376-0.417
		c-0.077-0.053-0.145-0.077-0.217-0.111c0.148-0.13,0.301-0.285,0.425-0.536c0.033-0.077,0.063-0.158,0.088-0.24
		c0.018-0.089,0.036-0.181,0.039-0.272c-0.001-0.087-0.004-0.195-0.02-0.265c-0.015-0.071-0.031-0.141-0.05-0.211
		c-0.088-0.291-0.307-0.583-0.557-0.746c-0.51-0.327-0.95-0.328-1.331-0.34c-0.053,0-0.101,0.006-0.152,0.008
		c0.043-0.236,0.041-0.477-0.007-0.676c-0.055-0.292-0.292-0.656-0.556-0.821c-0.523-0.327-0.946-0.334-1.326-0.364
		c-0.755-0.021-1.419,0.072-2.076,0.164c-1.113,0.164-2.189,0.368-3.259,0.518c-0.68,0.095-1.36,0.167-2.021,0.189
		c0.44-1.107,0.796-2.207,0.968-3.403c0.041-0.319,0.066-0.646,0.049-1.003c-0.025-0.353-0.066-0.751-0.34-1.199
		c-0.134-0.218-0.38-0.444-0.594-0.55c-0.222-0.129-0.519-0.209-0.797-0.203c-0.571,0.022-0.951,0.276-1.231,0.487
		c-0.558,0.449-0.898,0.917-1.234,1.372c-0.325,0.456-0.614,0.906-0.889,1.341c-0.276,0.434-0.538,0.856-0.801,1.246
		c-0.258,0.384-0.534,0.763-0.768,0.98c-0.009,0.009-0.013,0.01-0.021,0.017c-1.43,0.39-2.92,0.626-4.419,0.746
		c-1.469,0.107-2.751,0.093-3.804,0.042c-1.053-0.054-1.875-0.186-2.441-0.234c-1.515-0.133-1.801,2.177-0.2,2.274
		c0.613,0.03,1.481,0.039,2.597,0.033c1.116-0.013,2.471-0.064,4.027-0.239c1.646-0.184,3.284-0.492,4.888-0.997l0.039-0.012
		c0.069-0.022,0.136-0.056,0.197-0.102c0.127-0.094,0.243-0.191,0.334-0.284c0.434-0.442,0.7-0.866,0.982-1.3
		c0.275-0.432,0.531-0.866,0.794-1.3c0.261-0.434,0.527-0.865,0.809-1.277c0.279-0.403,0.592-0.808,0.892-1.053
		c0.147-0.124,0.278-0.16,0.278-0.16c-0.017-0.014,0.046,0.018,0.048,0.026c0.035,0.039,0.093,0.224,0.103,0.438
		c0.015,0.216,0.002,0.465-0.028,0.72c-0.129,1.031-0.471,2.149-0.895,3.219c-0.109,0.271-0.227,0.539-0.349,0.785l-0.01,0.021
		c-0.04,0.08-0.064,0.168-0.071,0.263c-0.03,0.396,0.267,0.739,0.662,0.769c1.212,0.091,2.346-0.052,3.457-0.214
		c1.108-0.167,2.193-0.385,3.258-0.552c0.621-0.094,1.253-0.175,1.812-0.161c0.267,0.002,0.525,0.069,0.579,0.108
		c-0.001,0-0.005-0.006-0.001,0.002c0.012,0.066,0.019,0.092,0.005,0.113c0,0.04-0.132,0.194-0.365,0.317
		c-0.228,0.125-0.506,0.239-0.802,0.337c-0.253,0.084-0.52,0.16-0.79,0.234c-0.482,0.13-0.96,0.259-1.396,0.339l0.008,0.036
		L38.573,35.1l-0.009,0.002c-0.332,0.091-0.544,0.423-0.479,0.768c0.068,0.362,0.417,0.601,0.78,0.532
		c0.023-0.004,0.042-0.011,0.065-0.015l0.009,0.039l0.338-0.09c0.508-0.135,1.029-0.269,1.558-0.425
		c0.61-0.164,1.215-0.32,1.803-0.42c0.297-0.051,0.591-0.084,0.857-0.085c0.262-0.007,0.509,0.051,0.559,0.097
		c0.027,0.021,0.019,0.012,0.033,0.039c0,0.004,0,0.003,0.001,0.006c-0.014,0.022-0.054,0.073-0.125,0.129
		c-0.082,0.066-0.187,0.138-0.307,0.203c-0.629,0.341-1.427,0.583-2.207,0.804l-0.139,0.037c-0.781,0.163-1.548,0.351-2.3,0.562
		l0.012,0.041l-0.004,0.001c-0.002,0.001-0.007,0.002-0.01,0.003c-0.353,0.099-0.559,0.464-0.46,0.817
		c0.099,0.353,0.465,0.559,0.818,0.461l0.016-0.005c0.001,0,0.002,0,0.003-0.001l0.012,0.041l2.044-0.544
		c0.301-0.064,0.604-0.135,0.904-0.184c0.316-0.05,0.632-0.091,0.936-0.109c0.297-0.018,0.603-0.019,0.824,0.026
		c-0.039,0.026-0.079,0.053-0.124,0.08c-0.47,0.258-1.089,0.454-1.693,0.617c-0.119,0.032-0.243,0.054-0.363,0.083
		c-0.259,0.045-0.512,0.097-0.761,0.149c-0.551,0.119-1.1,0.258-1.586,0.338l0.008,0.04c-0.028,0.007-0.051,0.011-0.08,0.018
		c-0.342,0.087-0.571,0.423-0.515,0.778c0.06,0.378,0.414,0.636,0.792,0.576l0.01-0.001c0.029-0.004,0.053-0.011,0.081-0.016
		l0.008,0.039c0.232-0.062,0.545-0.125,0.831-0.188c0.167-0.036,0.341-0.083,0.51-0.121c0.08-0.017,0.162-0.036,0.242-0.052
		c0.528-0.108,1.058-0.206,1.521-0.22c0.091-0.004,0.18,0,0.26,0.008c-0.038,0.029-0.067,0.056-0.108,0.086
		c-0.185,0.126-0.405,0.247-0.633,0.358c-1.013,0.487-2.136,0.834-3.221,1.106c-0.545,0.136-1.089,0.247-1.623,0.333
		c-0.543,0.088-1.037,0.133-1.595,0.167c-2.18,0.153-4.176,0.156-5.915-0.268c-0.874-0.202-1.699-0.487-2.48-0.794l-0.291-0.115
		c-0.036-0.016-0.124-0.045-0.202-0.069c-0.076-0.023-0.163-0.053-0.229-0.066c-0.128-0.025-0.264-0.056-0.383-0.072
		c-0.117-0.016-0.233-0.031-0.349-0.046c-0.443-0.043-0.857-0.069-1.251-0.086c-1.571-0.065-2.899-0.092-3.999-0.169
		c-1.098-0.064-1.946-0.268-2.546-0.262c-1.472,0.001-1.09,2.205-0.217,2.273c0.683,0.058,1.56,0.056,2.696,0.062
		c1.134,0.013,2.502-0.025,4.014-0.021c0.378,0.002,0.76,0.013,1.135,0.037l0.267,0.026c0.086,0.009,0.155,0.024,0.234,0.035
		c0.036,0.006,0.048,0.014,0.074,0.019c0.023,0.005,0.037,0.003,0.101,0.029c0.104,0.038,0.209,0.075,0.314,0.114
		c0.842,0.301,1.755,0.59,2.746,0.792c0.99,0.2,2.05,0.312,3.124,0.316c1.076,0.014,2.167-0.056,3.275-0.147
		c0.54-0.039,1.161-0.104,1.735-0.209c0.583-0.104,1.164-0.231,1.745-0.385c1.164-0.312,2.329-0.681,3.507-1.262
		c0.27-0.137,0.539-0.284,0.813-0.475c0.139-0.101,0.276-0.202,0.421-0.347c0.138-0.14,0.304-0.31,0.423-0.641
		c0.061-0.145,0.073-0.429,0.052-0.525c-0.005-0.066-0.017-0.138-0.04-0.214c-0.019-0.074-0.044-0.148-0.082-0.225
		c-0.031-0.068-0.086-0.115-0.129-0.175c0.015-0.008,0.03-0.014,0.045-0.022c0.178-0.105,0.36-0.223,0.55-0.408
		c0.095-0.095,0.192-0.213,0.276-0.366c0.083-0.16,0.15-0.364,0.146-0.58C45.646,37.654,45.633,37.55,45.604,37.459z"/>
</g>
</svg>
