<?xml version="1.0" encoding="utf-8"?>
<!-- Generator: Adobe Illustrator 16.0.0, SVG Export Plug-In . SVG Version: 6.00 Build 0)  -->
<!DOCTYPE svg PUBLIC "-//W3C//DTD SVG 1.1//EN" "http://www.w3.org/Graphics/SVG/1.1/DTD/svg11.dtd">
<svg version="1.1" id="Layer_1" xmlns="http://www.w3.org/2000/svg" xmlns:xlink="http://www.w3.org/1999/xlink" x="0px" y="0px"
	 width="48px" height="48px" viewBox="0 0 48 48" enable-background="new 0 0 48 48" xml:space="preserve">
<g>
	<path fill="#FBC6BB" d="M1.351,38.462c1.404-0.834,3.167-3.22,4.371-4.25c1.389-1.188,0.576-3.578,0.729-5.378
		c0.135-2.659,0.112-4.667,1.381-7.232c1.182-2.665,3.702-3.118,3.688,0.412c-0.05,1.714-1.192,3.907-0.381,5.597
		c0.282,0.024,0.488-0.147,0.693-0.322l10.672,10.299c-0.748,2.419-2.657,4.031-4.804,4.82c-1.17,0.429-4.143,0.184-5.226,0.553
		c-1.27,0.492-2.692,3.242-3.519,4.278"/>
	<path fill="#231F20" d="M23.033,37.041L12.361,26.743c-0.192-0.186-0.476-0.254-0.732-0.186c-0.079-0.742,0.12-1.61,0.314-2.461
		c0.157-0.684,0.318-1.391,0.339-2.08c0.009-2.596-1.23-3.139-1.761-3.251c-1.232-0.272-2.593,0.745-3.371,2.499
		c-1.225,2.478-1.319,4.493-1.426,6.826l-0.032,0.68C5.642,29.367,5.687,30,5.731,30.648c0.087,1.239,0.17,2.409-0.504,2.986
		c-0.5,0.427-1.06,1.041-1.686,1.725c-0.854,0.938-1.823,1.999-2.581,2.449c-0.36,0.213-0.479,0.681-0.265,1.043
		c0.206,0.345,0.69,0.473,1.044,0.265c0.956-0.569,1.96-1.671,2.931-2.736c0.569-0.624,1.107-1.214,1.545-1.589
		c1.259-1.076,1.14-2.765,1.031-4.285c-0.041-0.58-0.079-1.127-0.036-1.633l0.034-0.713c0.104-2.251,0.186-4.03,1.283-6.249
		c0.51-1.149,1.298-1.74,1.674-1.657c0.272,0.058,0.562,0.629,0.559,1.739c-0.015,0.521-0.155,1.13-0.303,1.776
		c-0.303,1.326-0.647,2.83-0.005,4.173c0.116,0.24,0.354,0.405,0.619,0.428c0.238,0.021,0.452-0.015,0.67-0.109l9.884,9.539
		c-0.93,2.388-3.015,3.465-4.187,3.896c-0.492,0.181-1.567,0.221-2.546,0.258c-1.05,0.039-2.041,0.077-2.693,0.3
		c-1.137,0.441-2.153,1.993-3.048,3.362c-0.282,0.431-0.573,0.876-0.791,1.148c-0.262,0.327-0.208,0.807,0.119,1.07
		C8.614,47.94,8.782,48,8.955,48c0.233,0,0.449-0.104,0.595-0.286c0.25-0.313,0.525-0.734,0.845-1.222l0.029-0.044
		c0.654-1.001,1.643-2.513,2.295-2.766c0.417-0.142,1.387-0.177,2.251-0.209c1.169-0.044,2.272-0.086,2.993-0.35
		c2.6-0.957,4.52-2.892,5.268-5.31C23.316,37.538,23.24,37.242,23.033,37.041z"/>
	<path fill="#FFFFFF" d="M31.125,37.075c-0.63-8.658-0.297-11.409-0.664-19.886c-0.304-6.985-0.371-12.561-1.188-13.196
		c-0.816-0.638-17.559,0.412-18.542,1.44c-0.615,0.646,0.481,28.376,1.588,33.311C14.367,39.61,30.818,39.106,31.125,37.075"/>
	<path fill="#231F20" d="M31.436,25.59c-0.03-2.4-0.062-4.883-0.214-8.434c-0.038-0.852-0.071-1.683-0.104-2.486l-0.03-0.768
		c-0.114-2.904-0.203-4.881-0.315-6.384c0-0.009-0.001-0.018-0.003-0.027c-0.197-2.588-0.466-3.662-1.027-4.099
		c-0.196-0.154-0.727-0.358-3.056-0.358c-2.067,0-4.77,0.16-6.672,0.294c-5.922,0.418-9.229,0.949-9.833,1.58
		c-0.232,0.243-0.713,0.75-0.062,15.606c0.315,7.153,0.863,15.742,1.458,18.396c0.055,0.239,0.221,0.438,0.446,0.534
		c1.011,0.428,4.232,0.475,5.57,0.475c5.205,0,11.478-0.563,13.4-1.64c0.521-0.292,0.819-0.658,0.884-1.093
		c0.008-0.056,0.01-0.112,0.006-0.167C31.515,31.964,31.477,28.869,31.436,25.59z M21.66,37.103c-0.167,0.1-0.354,0.067-0.472,0.007
		c-0.013-0.013-0.027-0.023-0.042-0.032c-0.401-0.249-0.436-0.555-0.333-0.759c0.044-0.091,0.158-0.242,0.415-0.242
		c0.101,0,0.212,0.023,0.331,0.07c0.389,0.154,0.405,0.342,0.41,0.404C21.985,36.747,21.851,36.985,21.66,37.103z M19.749,35.209
		c-0.121,0.13-0.222,0.276-0.299,0.432c-0.396,0.796-0.288,1.984,0.878,2.718c-1.171,0.057-2.298,0.087-3.309,0.087
		c-1.881,0-3.273-0.1-4.042-0.289c-0.118-0.638-0.239-1.529-0.36-2.653C15.053,35.448,17.448,35.349,19.749,35.209z M23.484,36.423
		c-0.048-0.573-0.347-1.067-0.842-1.412c2.585-0.205,5.116-0.475,7.536-0.802c0.047,0.841,0.102,1.73,0.172,2.701
		c-0.57,0.466-3.7,0.994-7.631,1.298C23.239,37.766,23.54,37.084,23.484,36.423z M12.466,33.985
		c-0.602-6.589-1.079-17.958-1.139-24.294c4.911-0.042,10.03-0.534,14.555-0.969c1.159-0.112,2.298-0.219,3.425-0.321
		c0.106,1.644,0.184,3.629,0.26,5.562l0.004,0.08c0.04,1.015,0.082,2.08,0.129,3.179c0.151,3.463,0.183,5.93,0.213,8.316
		l0.001,0.071c0.026,2.123,0.054,4.316,0.184,7.076C24.756,33.413,18.984,33.839,12.466,33.985z M11.319,8.169
		c0.005-1.329,0.038-1.949,0.07-2.237c1.658-0.608,11.08-1.412,15.476-1.412c1.168,0,1.702,0.057,1.947,0.111
		c0.106,0.219,0.248,0.798,0.381,2.253c-1.138,0.103-2.287,0.21-3.457,0.323C21.241,7.639,16.156,8.127,11.319,8.169z"/>
	<path fill="#D32026" d="M6.972,13.988c0,0-0.375,4.057,0.331,4.791c0.706,0.734,2.708,2.288-0.43,4.101l0.43,5.03
		c0,0,20.041,1.06,28.456,0v-4.987c0,0-4.056-2.158,0-4.704l-0.355-4.446L6.972,13.988z"/>
	<g>
		<path fill="#231F20" d="M36.49,22.811c0-0.375-0.226-0.665-0.582-0.755c-0.091-0.087-0.204-0.155-0.327-0.199
			c-0.051-0.018-0.066-0.022-0.051-0.018c-0.041-0.021-0.081-0.04-0.122-0.064l-0.141-0.085c-0.009-0.008-0.017-0.015-0.019-0.017
			c-0.17-0.149-0.256-0.259-0.299-0.324c-0.055-0.084-0.104-0.172-0.146-0.257c0-0.001-0.022-0.07-0.023-0.072
			c-0.013-0.039-0.025-0.078-0.035-0.113l-0.03-0.136c-0.001-0.006-0.003-0.013-0.005-0.019c-0.007-0.101-0.007-0.199,0-0.312
			c0.009-0.045,0.019-0.089,0.027-0.129c0.012-0.042,0.024-0.085,0.038-0.123c0.009-0.022,0.032-0.079,0.031-0.081
			c0.034-0.071,0.071-0.141,0.111-0.205c0.024-0.038,0.049-0.075,0.059-0.09l0.056-0.064c0.066-0.073,0.137-0.141,0.212-0.207
			c0.044-0.03,0.086-0.06,0.129-0.086c0.039-0.022,0.077-0.044,0.118-0.065l0.047-0.023c0.088-0.035,0.182-0.061,0.25-0.077
			c0.05-0.004,0.099-0.011,0.146-0.024c0.41-0.113,0.638-0.501,0.567-0.967c-0.229-1.515-0.321-2.964-0.272-4.309
			c0.002-0.08-0.01-0.159-0.035-0.24c-0.003-0.214-0.081-0.414-0.218-0.555c-0.136-0.141-0.322-0.215-0.568-0.215
			c-0.001,0-0.002,0-0.004,0c-5.754,0.211-10.787,0.314-15.388,0.314c-2.296,0-4.552-0.026-6.703-0.077
			c-2.179-0.051-4.338-0.131-6.465-0.239c-0.26,0-0.482,0.116-0.616,0.319c-0.177,0.14-0.283,0.344-0.3,0.581
			c-0.12,1.726,0.012,3.484,0.389,5.223c0.072,0.336,0.415,0.601,0.778,0.603c0.198,0,0.387,0.096,0.533,0.268
			c0.182,0.214,0.269,0.508,0.227,0.767c-0.109,0.68-0.817,1.083-1.389,1.222c-0.348,0.083-0.627,0.455-0.597,0.795l0.42,4.804
			c-0.141,0.229-0.159,0.54-0.043,0.802c0.125,0.282,0.377,0.455,0.691,0.475c5.037,0.322,10.141,0.486,15.168,0.486
			c2.368,0,4.767-0.037,7.128-0.108c2.056-0.062,4.161-0.155,6.254-0.273c0.174-0.01,0.331-0.068,0.459-0.171
			c0.113,0.019,0.227,0.013,0.327-0.014c0.409-0.113,0.638-0.501,0.568-0.967C36.61,26.189,36.489,24.515,36.49,22.811z
			 M28.604,27.615c0.002-0.021,0.002-0.043,0.002-0.064l-0.049-2.478c-0.008-0.435-0.366-0.801-0.812-0.801h-0.001
			c-0.454,0.021-0.804,0.375-0.797,0.809l0.049,2.478c0.001,0.033,0.004,0.066,0.009,0.099c-4.607,0.097-9.243,0.058-13.794-0.113
			c-1.689-0.064-3.435-0.151-5.328-0.265c-0.116-1.329-0.232-2.657-0.349-3.986c1.139-0.505,1.878-1.477,1.943-2.566
			c0.066-1.117-0.654-2.178-1.691-2.521c-0.217-1.171-0.31-2.376-0.275-3.588c3.993,0.191,8.106,0.284,12.569,0.284
			c2.081,0,4.273-0.021,6.522-0.063c-0.006,0.04-0.008,0.08-0.007,0.121l0.071,2.265c0.014,0.433,0.371,0.798,0.812,0.798
			c0.001,0,0.001,0,0.002,0c0.452-0.019,0.81-0.383,0.796-0.811l-0.071-2.265c-0.002-0.048-0.008-0.095-0.018-0.142l1.104-0.024
			c1.774-0.044,3.546-0.101,5.318-0.164c-0.003,1.025,0.071,2.11,0.225,3.305c-0.961,0.446-1.651,1.432-1.734,2.501
			c-0.093,1.193,0.637,2.357,1.788,2.878c0.02,1.325,0.117,2.684,0.29,4.043C33.068,27.462,30.859,27.553,28.604,27.615z"/>
		<path fill="#231F20" d="M28.445,22.217c-0.002-0.011-0.013-0.085-0.018-0.127l-0.031-0.269c-0.022-0.223-0.04-0.447-0.05-0.671
			c-0.022-0.446-0.019-0.907,0.011-1.371c0.013-0.196-0.066-0.399-0.214-0.558c-0.155-0.165-0.362-0.259-0.597-0.259
			c-0.001,0-0.002,0-0.003,0c-0.441,0.019-0.767,0.344-0.795,0.792c-0.061,0.971-0.005,1.993,0.166,3.037
			c0.062,0.379,0.458,0.614,0.792,0.614c0.073,0,0.146-0.011,0.211-0.032c0.415-0.134,0.633-0.514,0.558-0.965L28.445,22.217z"/>
	</g>
	<path fill="#FCB91F" d="M36.228,0.944c-0.562,2.542-2.037,4.763-3.961,5.967c1.134-0.9,2.731-0.512,3.756,0.562
		c1.026,1.075,1.566,2.686,1.866,4.291c-0.022-2.93,1.399-5.81,3.538-7.165c-2.204,0.176-4.433-1.426-5.366-3.858"/>
	<path fill="#231F20" d="M42.137,4.35c-0.09-0.305-0.344-0.494-0.665-0.494c-0.005,0-0.056,0.002-0.061,0.002
		c-2.123,0.163-3.724-1.48-4.422-2.888c0.002-0.207-0.083-0.399-0.242-0.542c-0.175-0.327-0.539-0.496-0.89-0.403
		c-0.209,0.055-0.394,0.206-0.496,0.406c-0.088,0.173-0.101,0.361-0.036,0.527c0.022,0.056,0.044,0.113,0.068,0.169
		c-0.57,2.167-1.753,3.95-3.337,5.026c-0.063,0.039-0.127,0.081-0.189,0.124c0,0-0.002,0.001-0.003,0.002
		c-0.041,0.029-0.081,0.059-0.121,0.09c-0.232,0.177-0.314,0.449-0.22,0.727c0.111,0.327,0.43,0.564,0.757,0.564
		c0.133,0,0.261-0.038,0.379-0.112c0.124-0.079,0.245-0.16,0.364-0.244c0.204-0.104,0.429-0.157,0.668-0.157
		c0.775,0,1.519,0.537,1.92,0.997c0.914,1.047,1.287,2.509,1.533,3.802c0.062,0.335,0.337,0.552,0.7,0.552
		c0.229,0,0.456-0.091,0.608-0.243c0.132-0.133,0.202-0.303,0.202-0.49c-0.006-2.069,0.82-5.021,3.165-6.529
		C42.106,5.052,42.237,4.687,42.137,4.35z M39.612,5.144c-0.863,0.913-1.534,2.056-1.963,3.342c-0.327-0.638-0.721-1.185-1.176-1.63
		c-0.521-0.51-1.152-0.876-1.804-1.055c0.72-0.84,1.32-1.837,1.755-2.919C37.297,4.001,38.41,4.79,39.612,5.144z"/>
	<path fill="#FCB91F" d="M42.948,11.013c0.043,1.763-0.949,3.515-2.483,4.386c1.615-1.061,3.801,0.77,4.176,2.664
		c0.073-1.355,1.031-3.438,2.007-4.382c-1.604-0.357-2.999-1.548-3.6-3.078"/>
	<path fill="#231F20" d="M47.379,13.462c-0.076-0.267-0.277-0.462-0.536-0.522c-1.379-0.319-2.553-1.301-3.062-2.562
		c-0.164-0.405-0.547-0.62-0.937-0.514c-0.302,0.084-0.591,0.41-0.571,0.769c-0.062,0.112-0.093,0.243-0.091,0.384
		c0.022,1.477-0.743,2.877-1.995,3.656c-0.038,0.021-0.075,0.044-0.113,0.068c0,0,0,0,0,0c-0.301,0.189-0.428,0.517-0.331,0.854
		c0.099,0.339,0.395,0.577,0.721,0.577c0.12,0,0.239-0.03,0.353-0.09c0.031-0.009,0.06-0.026,0.083-0.047l0.031-0.019
		c0.503-0.277,1.094-0.176,1.713,0.28c0.634,0.467,1.091,1.182,1.255,1.959c0.072,0.345,0.341,0.567,0.686,0.567
		c0.381,0,0.793-0.279,0.823-0.746c0.046-0.73,0.346-1.505,0.588-2.027c0.376-0.812,0.756-1.392,1.194-1.824
		C47.385,14.031,47.458,13.739,47.379,13.462z M44.616,15.389c-0.079,0.175-0.15,0.342-0.216,0.504
		c-0.52-0.64-1.163-1.125-1.827-1.38c0.409-0.553,0.719-1.177,0.912-1.833c0.531,0.578,1.169,1.044,1.872,1.368
		C45.091,14.439,44.847,14.88,44.616,15.389z"/>
	<g>
		<path fill="#FFFFFF" d="M24.092,18.869c0.031-0.074,0.06-0.134,0.081-0.197c0.023-0.075,0.044-0.152,0.054-0.229
			c0.007-0.059-0.03-0.083-0.081-0.051c-0.075,0.045-0.149,0.095-0.213,0.155c-0.398,0.375-0.716,0.813-1.001,1.278
			c-0.269,0.443-0.518,0.896-0.733,1.368c-0.012,0.026-0.022,0.053-0.033,0.079c0.005,0.005,0.009,0.008,0.014,0.013
			c0.034-0.026,0.072-0.049,0.104-0.078c0.357-0.309,0.67-0.66,0.967-1.026c0.136-0.168,0.261-0.346,0.391-0.521
			c0.054-0.073,0.119-0.12,0.228-0.103c-0.015,0.027-0.023,0.05-0.037,0.069c-0.487,0.729-1.051,1.388-1.737,1.938
			c-0.046,0.037-0.09,0.087-0.112,0.141c-0.107,0.26-0.195,0.526-0.231,0.806c-0.006,0.045-0.006,0.092,0.004,0.136
			c0.02,0.104,0.097,0.135,0.177,0.067c0.067-0.057,0.134-0.119,0.18-0.192c0.174-0.272,0.338-0.552,0.507-0.826
			c0.211-0.345,0.45-0.669,0.771-0.922c0.092-0.071,0.187-0.136,0.302-0.162c0.13-0.028,0.243-0.008,0.329,0.103
			c0.008,0.011,0.019,0.02,0.028,0.029c0.002,0.003,0.008,0.003,0.021,0.006c0.03-0.113,0.122-0.12,0.22-0.12
			c0.074,0,0.148-0.006,0.223-0.008c0.089-0.003,0.104,0.02,0.065,0.098c-0.201,0.396-0.404,0.79-0.603,1.186
			c-0.102,0.204-0.199,0.411-0.294,0.618c-0.013,0.026,0.001,0.065,0.002,0.098c0.036-0.007,0.078-0.003,0.104-0.022
			c0.188-0.132,0.321-0.316,0.447-0.505c0.029-0.045,0.062-0.09,0.084-0.139c0.029-0.063,0.069-0.09,0.138-0.071
			c0.019,0.005,0.038,0.005,0.062,0.008c-0.005,0.014-0.006,0.023-0.01,0.03c-0.2,0.342-0.416,0.675-0.711,0.945
			c-0.101,0.092-0.219,0.169-0.341,0.23c-0.198,0.101-0.349,0.004-0.367-0.218c-0.002-0.031-0.003-0.062-0.005-0.111
			c-0.026,0.023-0.042,0.039-0.059,0.054c-0.1,0.086-0.195,0.176-0.298,0.255c-0.051,0.039-0.114,0.065-0.177,0.083
			c-0.171,0.048-0.312-0.039-0.353-0.213c-0.017-0.072-0.021-0.147-0.03-0.235c-0.029,0.033-0.05,0.06-0.074,0.084
			c-0.109,0.108-0.212,0.224-0.33,0.32c-0.114,0.092-0.25,0.138-0.394,0.067c-0.143-0.071-0.177-0.207-0.185-0.354
			c-0.011-0.212,0.048-0.412,0.102-0.612c0.027-0.105,0.056-0.209,0.087-0.325c-0.088,0.013-0.166,0.021-0.243,0.038
			c-0.021,0.005-0.038,0.036-0.05,0.058c-0.154,0.293-0.32,0.579-0.538,0.829c-0.142,0.164-0.3,0.308-0.492,0.412
			c-0.047,0.025-0.1,0.046-0.152,0.057c-0.224,0.046-0.381-0.07-0.406-0.3c-0.022-0.2,0.01-0.392,0.074-0.581
			c0.185-0.541,0.48-1.012,0.908-1.395c0.104-0.092,0.231-0.156,0.351-0.229c0.039-0.023,0.088-0.035,0.133-0.045
			c0.228-0.046,0.376,0.068,0.397,0.299c0.017,0.194-0.036,0.377-0.102,0.556c-0.02,0.054-0.04,0.107-0.06,0.163
			c0.125,0.02,0.243-0.04,0.286-0.14c0.299-0.691,0.645-1.355,1.084-1.969c0.315-0.441,0.669-0.85,1.087-1.197
			c0.114-0.094,0.248-0.166,0.379-0.233c0.055-0.028,0.126-0.029,0.191-0.029c0.084,0,0.133,0.048,0.148,0.131
			c0.033,0.184-0.021,0.351-0.113,0.505C24.229,18.875,24.167,18.877,24.092,18.869 M22.782,22.549
			c0.011,0.112,0.074,0.15,0.168,0.091c0.051-0.032,0.101-0.073,0.136-0.12c0.065-0.083,0.13-0.17,0.18-0.263
			c0.231-0.425,0.458-0.852,0.683-1.279c0.014-0.026,0.011-0.078-0.007-0.097c-0.019-0.02-0.07-0.031-0.095-0.019
			c-0.056,0.025-0.112,0.06-0.156,0.103c-0.398,0.393-0.67,0.866-0.867,1.386C22.802,22.414,22.797,22.483,22.782,22.549
			 M20.521,21.556c-0.202,0.31-0.385,0.615-0.448,0.975c-0.008,0.043-0.003,0.091,0.005,0.134c0.018,0.095,0.085,0.142,0.178,0.112
			c0.057-0.017,0.113-0.048,0.157-0.088c0.229-0.205,0.384-0.464,0.516-0.739c0.017-0.034,0.008-0.055-0.026-0.069
			C20.749,21.813,20.622,21.71,20.521,21.556 M21.199,21.139c-0.008-0.177-0.122-0.241-0.269-0.145
			c-0.062,0.042-0.122,0.097-0.166,0.157c-0.156,0.214-0.051,0.487,0.212,0.58c0.018,0.007,0.059-0.007,0.066-0.022
			C21.132,21.53,21.201,21.344,21.199,21.139"/>
		<path fill="#FFFFFF" d="M13.645,20.939c-0.123,0.03-0.23,0.04-0.294,0.172c-0.15,0.31-0.323,0.609-0.565,0.857
			c-0.125,0.129-0.264,0.247-0.407,0.356c-0.066,0.052-0.156,0.085-0.24,0.103c-0.206,0.044-0.361-0.063-0.405-0.271
			c-0.047-0.221-0.016-0.437,0.058-0.647c0.201-0.585,0.542-1.07,1.033-1.448c0.125-0.097,0.259-0.172,0.419-0.195
			c0.212-0.031,0.363,0.086,0.384,0.301c0.018,0.191-0.032,0.372-0.095,0.55c-0.008,0.022-0.004,0.05-0.006,0.074
			c0.022-0.005,0.048-0.006,0.069-0.017c0.212-0.11,0.375-0.28,0.538-0.45c0.14-0.147,0.292-0.282,0.449-0.411
			c0.118-0.096,0.262-0.142,0.418-0.128c0.199,0.018,0.317,0.152,0.305,0.351c-0.011,0.198-0.091,0.367-0.232,0.506
			c-0.019,0.019-0.042,0.035-0.066,0.046c-0.106,0.052-0.205-0.012-0.206-0.13c-0.001-0.148,0.13-0.317,0.275-0.348
			c0.046-0.01,0.074-0.026,0.071-0.079c-0.003-0.054-0.029-0.091-0.083-0.1c-0.077-0.013-0.147,0.012-0.201,0.063
			c-0.11,0.103-0.222,0.207-0.317,0.323c-0.267,0.327-0.45,0.7-0.567,1.103c-0.03,0.1-0.041,0.204-0.005,0.307
			c0.04,0.111,0.127,0.171,0.239,0.133c0.095-0.032,0.193-0.081,0.27-0.146c0.249-0.211,0.436-0.476,0.62-0.743
			c0.187-0.27,0.372-0.54,0.568-0.802c0.128-0.17,0.28-0.321,0.461-0.437c0.066-0.042,0.138-0.079,0.212-0.103
			c0.14-0.045,0.262-0.005,0.366,0.119c0.042-0.109,0.13-0.09,0.209-0.095c0.082-0.004,0.163-0.008,0.245-0.011
			c0.082-0.003,0.089,0.007,0.051,0.083c-0.173,0.333-0.345,0.667-0.518,1c-0.123,0.239-0.247,0.478-0.369,0.717
			c-0.016,0.031-0.032,0.062-0.037,0.094c-0.004,0.026,0,0.065,0.017,0.078c0.017,0.013,0.059,0.008,0.078-0.005
			c0.065-0.044,0.134-0.088,0.183-0.149c0.137-0.167,0.27-0.339,0.398-0.514c0.061-0.083,0.115-0.111,0.22-0.087
			c-0.001,0.006,0.001,0.013-0.002,0.018c-0.245,0.396-0.5,0.783-0.861,1.085c-0.074,0.062-0.156,0.119-0.244,0.157
			c-0.214,0.092-0.365-0.012-0.365-0.245c0-0.02,0-0.04,0-0.078c-0.024,0.024-0.039,0.038-0.053,0.052
			c-0.119,0.126-0.241,0.249-0.406,0.31c-0.06,0.022-0.128,0.034-0.191,0.031c-0.123-0.005-0.224-0.092-0.236-0.214
			c-0.011-0.103,0.004-0.207,0.009-0.31c0.001-0.024,0.008-0.048,0.001-0.08c-0.048,0.05-0.095,0.105-0.149,0.152
			c-0.147,0.13-0.288,0.269-0.448,0.381c-0.097,0.066-0.221,0.102-0.339,0.127c-0.225,0.049-0.423-0.085-0.492-0.314
			c-0.064-0.212-0.04-0.421,0.035-0.625c0.051-0.135,0.111-0.267,0.166-0.401C13.623,20.99,13.632,20.97,13.645,20.939
			 M16.502,19.961c-0.089,0.021-0.174,0.086-0.237,0.173c-0.184,0.259-0.371,0.519-0.542,0.787c-0.139,0.22-0.248,0.458-0.301,0.716
			c-0.011,0.053-0.01,0.106,0.042,0.14c0.052,0.034,0.095,0.003,0.136-0.026c0.122-0.084,0.213-0.197,0.282-0.325
			c0.241-0.451,0.479-0.903,0.715-1.355C16.634,20,16.602,19.957,16.502,19.961 M12.775,20.68c-0.012,0.01-0.02,0.014-0.024,0.021
			c-0.194,0.289-0.355,0.592-0.426,0.937c-0.011,0.054-0.008,0.114,0.005,0.167c0.024,0.099,0.106,0.139,0.2,0.099
			c0.051-0.021,0.1-0.055,0.141-0.091c0.244-0.216,0.394-0.498,0.544-0.779c0.02-0.038,0.001-0.054-0.032-0.064
			C13.017,20.92,12.876,20.833,12.775,20.68 M13.454,20.322c-0.009-0.196-0.105-0.268-0.248-0.2
			c-0.153,0.074-0.242,0.204-0.265,0.369c-0.008,0.047,0.013,0.104,0.037,0.147c0.062,0.11,0.167,0.162,0.291,0.174
			c0.021,0.001,0.057-0.015,0.064-0.032C13.399,20.626,13.456,20.469,13.454,20.322"/>
		<path fill="#FFFFFF" d="M20.688,18.535c-0.088-0.026-0.166-0.018-0.244,0.012c-0.214,0.082-0.395,0.218-0.57,0.361
			c-0.36,0.295-0.65,0.654-0.922,1.028c-0.357,0.493-0.662,1.015-0.873,1.588c-0.105,0.287-0.167,0.583-0.183,0.888
			c-0.006,0.124,0.018,0.244,0.079,0.353c0.102,0.185,0.296,0.264,0.492,0.186c0.107-0.043,0.213-0.103,0.3-0.18
			c0.398-0.356,0.671-0.792,0.772-1.323c0.017-0.084,0.015-0.176,0.004-0.262c-0.015-0.114-0.093-0.158-0.196-0.107
			c-0.07,0.035-0.139,0.089-0.188,0.15c-0.133,0.164-0.219,0.353-0.254,0.562c-0.012,0.071-0.044,0.118-0.107,0.154
			c-0.169,0.095-0.312,0.222-0.443,0.364c-0.021,0.023-0.035,0.053-0.053,0.079c-0.008-0.005-0.016-0.01-0.025-0.015
			c0.004-0.048,0.006-0.096,0.012-0.144c0.051-0.448,0.2-0.853,0.542-1.167c0.117-0.107,0.249-0.187,0.403-0.229
			c0.272-0.076,0.439,0.039,0.472,0.322c0.024,0.208-0.017,0.407-0.083,0.6c-0.184,0.523-0.481,0.971-0.912,1.324
			c-0.157,0.129-0.33,0.234-0.528,0.284c-0.402,0.101-0.775-0.12-0.899-0.523c-0.1-0.331-0.067-0.657,0.021-0.983
			c0.169-0.626,0.473-1.188,0.837-1.718c0.356-0.519,0.77-0.983,1.277-1.359c0.283-0.208,0.589-0.375,0.933-0.455
			c0.162-0.037,0.323-0.036,0.467,0.071c0.06,0.044,0.122,0.015,0.18-0.011c0.155-0.068,0.316-0.112,0.485-0.123
			c0.246-0.016,0.479,0.033,0.698,0.14c0.283,0.136,0.562,0.283,0.841,0.426c0.079,0.041,0.077,0.053,0.016,0.116
			c-0.084,0.089-0.167,0.178-0.245,0.272c-0.047,0.055-0.092,0.062-0.153,0.026c-0.259-0.149-0.518-0.299-0.779-0.443
			c-0.178-0.099-0.366-0.179-0.569-0.211c-0.066-0.01-0.134-0.014-0.203-0.013c-0.092,0.002-0.104,0.025-0.11,0.116
			c-0.009,0.134-0.009,0.273-0.041,0.403c-0.101,0.414-0.3,0.776-0.619,1.062c-0.084,0.075-0.189,0.133-0.294,0.176
			c-0.176,0.072-0.322-0.021-0.355-0.208c-0.021-0.122,0.004-0.238,0.045-0.353c0.174-0.49,0.492-0.869,0.905-1.176
			c0.02-0.014,0.037-0.027,0.055-0.041C20.678,18.555,20.68,18.549,20.688,18.535 M20.827,18.69
			c-0.008-0.003-0.016-0.007-0.022-0.01c-0.032,0.02-0.065,0.038-0.097,0.06c-0.395,0.277-0.671,0.646-0.848,1.092
			c-0.027,0.065-0.041,0.139-0.041,0.21c-0.002,0.122,0.091,0.179,0.203,0.127c0.055-0.025,0.107-0.061,0.153-0.1
			c0.37-0.317,0.584-0.718,0.645-1.201C20.826,18.81,20.825,18.75,20.827,18.69"/>
		<path fill="#FFFFFF" d="M16.858,23.545c-0.043-0.014-0.089-0.022-0.128-0.043c-0.279-0.142-0.573-0.227-0.885-0.233
			c-0.119-0.002-0.24,0.012-0.356,0.036c-0.155,0.032-0.273,0.126-0.366,0.255c-0.057,0.08-0.083,0.079-0.142,0.002
			c-0.226-0.292-0.538-0.399-0.893-0.411c-0.424-0.014-0.829,0.092-1.231,0.209c-0.399,0.117-0.798,0.232-1.203,0.331
			c-0.304,0.075-0.612,0.067-0.903-0.066c-0.425-0.195-0.641-0.528-0.645-0.997c-0.009-0.945,0.276-1.793,0.853-2.541
			c0.322-0.417,0.68-0.794,1.121-1.087c0.146-0.097,0.303-0.18,0.462-0.254c0.195-0.092,0.409-0.102,0.619-0.099
			c0.175,0.002,0.325,0.166,0.338,0.351c0.016,0.231-0.078,0.422-0.225,0.593c-0.007,0.008-0.017,0.015-0.025,0.022
			c-0.075,0.055-0.174,0.07-0.228,0.03c-0.074-0.055-0.075-0.134-0.054-0.21c0.042-0.154,0.122-0.278,0.293-0.313
			c0.052-0.011,0.071-0.04,0.066-0.092c-0.008-0.089-0.068-0.144-0.166-0.142c-0.137,0.002-0.252,0.066-0.368,0.129
			c-0.218,0.12-0.399,0.287-0.567,0.469c-0.567,0.616-1.017,1.305-1.289,2.102c-0.11,0.324-0.182,0.655-0.148,0.999
			c0.01,0.103,0.031,0.207,0.066,0.303c0.096,0.264,0.306,0.4,0.565,0.471c0.266,0.072,0.53,0.043,0.791-0.029
			c0.458-0.126,0.914-0.258,1.37-0.39c0.459-0.134,0.921-0.251,1.404-0.262c0.494-0.011,0.947,0.123,1.35,0.413
			c0.156,0.113,0.305,0.233,0.456,0.353c0.029,0.023,0.052,0.054,0.077,0.081C16.866,23.531,16.862,23.538,16.858,23.545"/>
		<path fill="#FFFFFF" d="M25.427,18.1c-0.012,0.034-0.017,0.057-0.027,0.077c-0.329,0.614-0.802,1.058-1.48,1.262
			c-0.191,0.057-0.387,0.071-0.583,0.043c-0.064-0.009-0.072-0.024-0.033-0.077c0.084-0.115,0.169-0.23,0.258-0.341
			c0.019-0.022,0.056-0.042,0.084-0.042c0.422,0.011,0.792-0.139,1.137-0.366c0.229-0.151,0.439-0.325,0.613-0.539
			C25.399,18.111,25.406,18.11,25.427,18.1"/>
		<path fill="#FFFFFF" d="M18.075,19.701c-0.084,0.152-0.16,0.289-0.237,0.423c-0.007,0.012-0.023,0.023-0.037,0.024
			c-0.138,0.008-0.277,0.014-0.432,0.021c0.081-0.151,0.155-0.291,0.229-0.428c0.006-0.01,0.021-0.019,0.033-0.019
			C17.772,19.715,17.914,19.709,18.075,19.701"/>
	</g>
</g>
<rect x="36.814" y="28" fill="none" width="5.222" height="12.751"/>
<rect x="44.427" y="28.001" fill="none" width="4.527" height="12.751"/>
</svg>
