<svg width="375" height="443" viewBox="0 0 375 443" fill="none" xmlns="http://www.w3.org/2000/svg">
<path d="M398.161 307.75C394.581 277.112 373.164 249.219 344.49 237.851C315.817 226.482 281.104 232.121 257.503 251.981C233.237 272.401 221.178 305.351 194.786 322.937C172.437 337.829 142.142 338.769 117.848 327.322C93.5539 315.876 75.4444 293.047 67.4973 267.395C59.5513 241.741 61.3085 213.597 70.0538 188.205C81.6351 154.585 105.2 124.35 107.097 88.8454C109.178 49.9209 80.6815 11.5401 42.8178 2.27451C4.95628 -6.99263 -63.4665 18.5662 -77.9104 80.8749L-85.555 62.2539L60.4155 417.811L62.2427 422.261L70.4628 442.284L398.161 307.75Z" fill="#F5AF38"/>
</svg>
