<svg version="1" xmlns="http://www.w3.org/2000/svg" width="1365.333" height="1365.333" viewBox="0 0 1024.000000 1024.000000"><path d="M196.6 96.6c-35.2 5.5-64.5 20.8-89.7 47.2-35.2 36.6-49.9 89.1-39 139.2 2.9 13 6.5 23.2 13.1 36.5 26 52.6 79.2 85.5 138.5 85.5 64.4 0 120.9-38.6 144.5-98.7 18.6-47.4 12.6-101.4-16.1-143.4-25-36.5-62.2-59.8-106.4-66.4-12.2-1.8-32.9-1.8-44.9.1zm39 37.5c18 2.5 38.4 10.8 53 21.6 41.7 31 58.3 84.5 41.3 133.1-6.3 17.9-15.1 31.3-30.1 45.8-18.3 17.7-38.9 27.8-63.8 31.5-11.4 1.6-33.1.6-43.9-2-29.2-7.3-54.7-25.4-70.9-50.4-38.2-59-16.1-138 47.2-168.7 21.2-10.3 44.4-14.1 67.2-10.9zM748.5 96.1c-58.1 7.8-107.9 49-126.4 104.4-9.5 28.5-10.6 60.2-3 89.1 4.7 18.2 14.2 37.9 25.6 53.4 7.3 9.9 23.8 26 34 33.3 18.4 13.1 42.2 22.8 65.4 26.8 17 2.9 42.2 2.3 57.9-1.4 31.2-7.4 54.8-20.3 76.5-42.1 17.2-17.3 28-34.2 36.8-57.6 6.5-17.4 8.1-27.6 8.2-51.5 0-23.5-1.1-30.9-7-49.2-7.6-23.2-19.8-42.7-38-60.8-22.1-22.2-47.4-35.9-78.4-42.6-11.1-2.4-40-3.4-51.6-1.8zm39.1 38.4c17.5 3.1 32 8.7 45.6 17.8 44.7 29.7 63.6 84.6 46.7 135.1-12.4 37-43.4 66.1-81.4 76.1-13.7 3.7-33.8 4.5-48.5 2-63.5-10.6-106.8-70.7-96.5-134.1 5.1-31.3 23.2-59.9 49.3-77.7 15.2-10.4 32.7-17 53.2-20.1 6.5-.9 23.6-.4 31.6.9zM397.8 398c-9.3 2.8-14.7 12.5-12.6 22.7 1 4.6 2.8 6.6 44.4 48.3l43.4 43.5-43 43c-30.8 30.8-43.3 44-44.1 46.4-5 15.1 7.7 29.2 22.7 25.1 4.6-1.2 7.8-4.2 48.2-44.4l43.2-43.1 43.3 43.2c45.2 45.1 45.4 45.3 53.7 45.3 6-.1 14.7-6.3 16.9-12.3 1.6-4.3 1.3-10.7-.8-15.2-1.3-2.7-16-18.1-44-46l-42.1-42 42.5-42.5c29-29.1 42.9-43.7 44-46.2 6.5-15.8-8.8-31.7-24.3-25.3-2.5 1.1-17.2 15.1-46.4 44.3L500 485.5l-43.2-43.2c-36.8-36.6-43.9-43.3-47.3-44.2-4.6-1.2-7.8-1.3-11.7-.1zM206.5 645c-26.6 2.3-55.2 12.7-77 28.1-11.4 8.1-28.2 24.9-36.2 36.2-40 56.7-38.3 131.8 4.2 186.2 46.2 59 128.8 76.3 195.5 40.9 11.7-6.2 22.7-14.3 33.7-24.8 48.6-46.2 61.8-118.3 32.8-179.1-27.5-57.6-89.3-93-153-87.5zm33.7 39.5c22.6 3.9 44.7 15.4 61.3 31.9 22.7 22.5 34.6 50.7 34.8 82.1.1 14.7-1.3 24.1-5.4 36.6-17.1 52.7-68.8 86.9-122.6 81.1-19.6-2-34.3-7.1-51.1-17.4-11.7-7.2-29.7-25.1-37-37C91.3 815 98 756.1 136.5 717.5c8.8-8.8 20.9-17.7 31-22.8 7.7-3.8 22.1-8.6 30.5-10.2 10.2-1.8 31.8-1.8 42.2 0zM756.3 645c-37.1 3.2-70.2 18.7-96.8 45.4-22.3 22.3-35.9 47.6-42.7 79-3.2 14.8-3.2 45.6 0 60.3 13.9 63.8 59.3 108.9 123.2 122.4 15.1 3.2 41.8 3.3 57.5.1 21.1-4.2 40.9-12.2 57.2-23.1 37.7-25.3 62.5-64.9 68.4-109.6 1.7-12.9.6-40.4-2-52-3.3-14.2-6.8-24.1-13.2-37-28-56.7-88.6-90.8-151.6-85.5zm36 40.1c23.8 4.8 43.9 16 61.3 34.1 9.2 9.6 14.5 17 20.1 28.3 19 38 16 82.3-7.9 118.1-6.5 9.7-21.2 24.5-30.4 30.6-25.8 17-54.5 23.7-83.4 19.4-57.2-8.7-99.8-58-100-115.8-.1-43.6 24.6-84 63.5-104 18.3-9.3 31.9-12.6 52.8-12.7 10.3-.1 16.5.4 24 2z"/></svg>